<?xml version="1.0" encoding="UTF-8"?>
<svg version="1.1" xmlns="http://www.w3.org/2000/svg" width="472" height="472">
<path d="M0 0 C0 0.66 0 1.32 0 2 C1.918125 2.185625 1.918125 2.185625 3.875 2.375 C5.91687815 2.58125032 7.9585023 2.79001738 10 3 C10.73395996 3.07508789 11.46791992 3.15017578 12.22412109 3.22753906 C14.67079322 3.4800796 17.11667262 3.73941471 19.5625 4 C20.37251465 4.0829834 21.1825293 4.1659668 22.01708984 4.25146484 C27.88582124 4.88582124 27.88582124 4.88582124 29 6 C30.54955559 6.09899523 32.10353673 6.13079524 33.65625 6.1328125 C35.06583984 6.13474609 35.06583984 6.13474609 36.50390625 6.13671875 C37.98697266 6.13091797 37.98697266 6.13091797 39.5 6.125 C40.48871094 6.12886719 41.47742188 6.13273437 42.49609375 6.13671875 C43.43582031 6.13542969 44.37554687 6.13414063 45.34375 6.1328125 C46.64602539 6.13112061 46.64602539 6.13112061 47.97460938 6.12939453 C49.99604154 6.2241537 49.99604154 6.2241537 51 5 C52.32917112 4.78596518 53.66777455 4.62963442 55.0078125 4.5 C56.24144531 4.37625 56.24144531 4.37625 57.5 4.25 C58.36625 4.1675 59.2325 4.085 60.125 4 C65.77252845 3.44733667 71.38895335 2.85154095 77 2 C77 1.34 77 0.68 77 0 C82.95703125 -1.07421875 82.95703125 -1.07421875 85 -1 C86.03240616 -0.0334921 87.03013072 0.97075097 88 2 C90.2603044 2.99373439 90.2603044 2.99373439 92.6875 3.6875 C93.49574219 3.93886719 94.30398438 4.19023437 95.13671875 4.44921875 C95.75160156 4.63097656 96.36648438 4.81273437 97 5 C97 5.66 97 6.32 97 7 C102.94 8.485 102.94 8.485 109 10 C109 10.66 109 11.32 109 12 C109.99966797 12.07347656 109.99966797 12.07347656 111.01953125 12.1484375 C127.15538173 13.45735964 140.63856292 17.63516047 155 25 C155 25.66 155 26.32 155 27 C155.8353125 27.0928125 155.8353125 27.0928125 156.6875 27.1875 C160.027159 28.3608937 161.71500747 30.34446814 164 33 C164.8125 35.3125 164.8125 35.3125 165 37 C165.66 37 166.32 37 167 37 C173.51936219 48.52164009 173.51936219 48.52164009 175 54 C175.66 54 176.32 54 177 54 C180 59.625 180 59.625 180 63 C180.66 63 181.32 63 182 63 C183.34277732 65.7663534 184.67255228 68.53876211 186 71.3125 C186.3815625 72.09818359 186.763125 72.88386719 187.15625 73.69335938 C187.5171875 74.45068359 187.878125 75.20800781 188.25 75.98828125 C188.58515625 76.68477783 188.9203125 77.38127441 189.265625 78.09887695 C190 80 190 80 190 83 C190.66 83 191.32 83 192 83 C193.33912585 86.12254943 194.67030658 89.24842358 196 92.375 C196.3815625 93.26445313 196.763125 94.15390625 197.15625 95.0703125 C197.5171875 95.92109375 197.878125 96.771875 198.25 97.6484375 C198.58515625 98.43395996 198.9203125 99.21948242 199.265625 100.02880859 C200 102 200 102 200 104 C200.66 104 201.32 104 202 104 C202.99 107.3 203.98 110.6 205 114 C205.66 114 206.32 114 207 114 C207.27263672 114.81404297 207.27263672 114.81404297 207.55078125 115.64453125 C207.80214844 116.35996094 208.05351562 117.07539063 208.3125 117.8125 C208.55613281 118.52019531 208.79976563 119.22789062 209.05078125 119.95703125 C209.8865937 122.06182881 209.8865937 122.06182881 211.53125 123.53125 C213.890714 125.890714 214.22319617 128.83303054 215 132 C215.66 132 216.32 132 217 132 C220 138.5 220 138.5 220 143 C218.10807525 143.98669759 216.21128022 144.9640602 214.3125 145.9375 C213.25675781 146.48277344 212.20101563 147.02804688 211.11328125 147.58984375 C208.33765953 148.8470576 205.99727874 149.56069569 203 150 C203 150.66 203 151.32 203 152 C199.7 152.99 196.4 153.98 193 155 C193 155.66 193 156.32 193 157 C192.38253906 157.24234375 191.76507813 157.4846875 191.12890625 157.734375 C180.97464918 161.60461628 180.97464918 161.60461628 171.375 166.625 C167.05637208 169.12525827 162.9545483 170 158 170 C158 170.66 158 171.32 158 172 C154 172 154 172 151.375 169.8125 C148.34807675 166.22798562 147 163.69870667 147 159 C146.34 159 145.68 159 145 159 C144.49632243 157.54293274 143.99717444 156.08429904 143.5 154.625 C143.08234375 153.40683594 143.08234375 153.40683594 142.65625 152.1640625 C142 150 142 150 142 148 C141.34 148 140.68 148 140 148 C139.93834192 167.7448149 140.06098331 187.48012742 140.37231445 207.22241211 C140.4284812 210.79680168 140.47827572 214.37125254 140.52671719 217.94575405 C140.56570438 220.75200838 140.60874938 223.55818977 140.65294075 226.36436653 C140.68274825 228.31574242 140.70855143 230.26717818 140.73423767 232.21861267 C140.83027052 237.91922081 141.14870731 243.35756497 142 249 C142.17242 252.39475248 142.20825356 255.78890985 142.24609375 259.1875 C142.27778286 261.24707358 142.30969376 263.30664376 142.34179688 265.36621094 C142.35718506 266.44737183 142.37257324 267.52853271 142.38842773 268.64245605 C142.66682321 287.69038519 143.16689553 306.718174 144 325.75 C144.04188446 326.7203418 144.08376892 327.69068359 144.12692261 328.69042969 C144.52025578 337.71871969 144.94833196 346.74546945 145.5 355.765625 C145.5721875 356.95446289 145.644375 358.14330078 145.71875 359.36816406 C145.71311476 361.92243696 145.71311476 361.92243696 147 363 C147.23308303 365.7925914 147.4049094 368.56527713 147.53515625 371.36328125 C147.57813339 372.22447067 147.62111053 373.0856601 147.66539001 373.97294617 C147.75591318 375.8131492 147.84401426 377.65347266 147.92993164 379.49389648 C148.05886729 382.23526314 148.19772555 384.97598454 148.33789062 387.71679688 C148.56182178 392.22783302 148.74678667 396.73911719 148.90313721 401.25299072 C148.96882307 403.11582863 149.04143461 404.9784328 149.12030029 406.84075928 C149.23061687 409.59559123 149.30555477 412.34924938 149.37109375 415.10546875 C149.42862572 416.36016716 149.42862572 416.36016716 149.48731995 417.64021301 C149.57014034 423.39416247 149.57014034 423.39416247 146.66821289 426.4777832 C142.34154105 428.94615167 138.99574038 430 134 430 C134 430.66 134 431.32 134 432 C116.08391549 434.92449557 98.26803128 435.15294646 80.16015625 435.1328125 C77.98229461 435.13348874 75.80443304 435.13446141 73.62657166 435.13571167 C69.08233922 435.13717641 64.53812659 435.13507569 59.99389648 435.13037109 C54.24869455 435.12470462 48.50353922 435.12803682 42.75833893 435.13380718 C-17.33243817 435.18525165 -17.33243817 435.18525165 -43 432 C-43 431.34 -43 430.68 -43 430 C-43.66386719 429.95101563 -44.32773438 429.90203125 -45.01171875 429.8515625 C-53.78207381 429.10896309 -53.78207381 429.10896309 -58 427 C-58 426.34 -58 425.68 -58 425 C-58.7425 424.9175 -59.485 424.835 -60.25 424.75 C-63.78618602 423.78558563 -64.84521433 422.99124256 -67 420 C-67.57917959 416.70511164 -67.46621905 413.46060503 -67.375 410.125 C-67.36138428 409.13935059 -67.34776855 408.15370117 -67.33374023 407.13818359 C-67.15447941 398.28965128 -66.63440607 389.45553664 -66.0625 380.625 C-66.01929626 379.95212952 -65.97609253 379.27925903 -65.93157959 378.58599854 C-65.18131261 367.18131261 -65.18131261 367.18131261 -64 366 C-63.77004547 363.45497698 -63.60477301 360.9338232 -63.48242188 358.3828125 C-63.42066395 357.18158249 -63.42066395 357.18158249 -63.35765839 355.95608521 C-62.8999631 346.64478155 -62.63012329 337.32730991 -62.36924744 328.00878906 C-62.27907226 324.79744577 -62.18545411 321.58621844 -62.09094238 318.375 C-61.82318598 309.26088043 -61.56068238 300.14661505 -61.30224609 291.03222656 C-61.14294143 285.42226364 -60.97912999 279.81244719 -60.81248474 274.20269775 C-60.75012504 272.07201187 -60.68954015 269.94127328 -60.63075256 267.81048584 C-60.54907929 264.85268315 -60.46172251 261.8950998 -60.37304688 258.9375 C-60.35016098 258.05659698 -60.32727509 257.17569397 -60.30369568 256.26809692 C-60.11395539 250.22791077 -60.11395539 250.22791077 -59 248 C-58.90110415 245.31283176 -58.8601594 242.65214859 -58.8671875 239.96484375 C-58.86575241 238.77405968 -58.86575241 238.77405968 -58.86428833 237.55921936 C-58.86360749 235.88054322 -58.8654551 234.20186445 -58.86962891 232.52319336 C-58.87498559 229.94443903 -58.86967708 227.36585832 -58.86328125 224.78710938 C-58.86394191 223.15885378 -58.86522282 221.53059829 -58.8671875 219.90234375 C-58.86415115 218.73831276 -58.86415115 218.73831276 -58.86105347 217.55076599 C-58.54394011 213.97991173 -58.54394011 213.97991173 -60 211 C-60.13559541 208.98857269 -60.20395232 206.97258329 -60.24609375 204.95703125 C-60.27775635 203.66861328 -60.30941895 202.38019531 -60.34204102 201.05273438 C-60.35743927 200.36139404 -60.37283752 199.67005371 -60.38870239 198.95776367 C-60.76843047 182.26397709 -61.75663824 165.65055043 -63 149 C-63.66 149 -64.32 149 -65 149 C-65.04125 150.0725 -65.0825 151.145 -65.125 152.25 C-65.94896578 158.92531695 -69.18365429 166.08328138 -73.86328125 170.9296875 C-76.82901959 172.41526758 -78.25816325 171.81215773 -81.375 170.8125 C-82.33792969 170.5134375 -83.30085938 170.214375 -84.29296875 169.90625 C-85.18628906 169.6071875 -86.07960937 169.308125 -87 169 C-88.216875 168.608125 -89.43375 168.21625 -90.6875 167.8125 C-91.450625 167.544375 -92.21375 167.27625 -93 167 C-93 166.34 -93 165.68 -93 165 C-94.52560547 164.8453125 -94.52560547 164.8453125 -96.08203125 164.6875 C-100.09579001 163.98319138 -103.0447711 162.79334346 -106.6875 161 C-111.67834941 158.52946102 -111.67834941 158.52946102 -117 157 C-117 156.34 -117 155.68 -117 155 C-117.98033203 154.86271484 -117.98033203 154.86271484 -118.98046875 154.72265625 C-122.98990219 153.76308939 -126.56386353 152.12924389 -130.3125 150.4375 C-131.05306641 150.10814453 -131.79363281 149.77878906 -132.55664062 149.43945312 C-134.37311562 148.63082877 -136.18683931 147.81602884 -138 147 C-138 146.34 -138 145.68 -138 145 C-140.31 144.67 -142.62 144.34 -145 144 C-146.125 139.25 -146.125 139.25 -145 137 C-144.34 137 -143.68 137 -143 137 C-142.87625 136.278125 -142.7525 135.55625 -142.625 134.8125 C-142.0095069 132.04278106 -141.11555626 129.6029646 -140 127 C-139.34 127 -138.68 127 -138 127 C-137.01 124.03 -136.02 121.06 -135 118 C-134.34 118 -133.68 118 -133 118 C-132.87625 117.113125 -132.7525 116.22625 -132.625 115.3125 C-132.05587264 112.29612498 -131.23385564 109.79673946 -130 107 C-129.34 107 -128.68 107 -128 107 C-127.90203125 106.33097656 -127.8040625 105.66195312 -127.703125 104.97265625 C-126.8227375 101.25057354 -125.32331241 97.90517512 -123.75 94.4375 C-123.11761896 93.01991931 -122.48611738 91.60194599 -121.85546875 90.18359375 C-121.54270996 89.48218262 -121.22995117 88.78077148 -120.90771484 88.05810547 C-118.85632333 83.40688695 -116.93231541 78.70167068 -115 74 C-114.34 74 -113.68 74 -113 74 C-112.01 70.7 -111.02 67.4 -110 64 C-109.34 64 -108.68 64 -108 64 C-107.7525 63.13375 -107.505 62.2675 -107.25 61.375 C-105.92701765 57.80294764 -104.13669124 55.13826526 -102 52 C-101.28426473 50.35380887 -100.5974304 48.69271945 -100 47 C-99.34 47 -98.68 47 -98 47 C-97.690625 46.05125 -97.38125 45.1025 -97.0625 44.125 C-96 41 -96 41 -95 39 C-94.34 39 -93.68 39 -93 39 C-92.731875 38.030625 -92.46375 37.06125 -92.1875 36.0625 C-91.5996875 34.5465625 -91.5996875 34.5465625 -91 33 C-90.01 32.67 -89.02 32.34 -88 32 C-88 31.34 -88 30.68 -88 30 C-78.28156394 23.04825384 -66.93829742 18.41205509 -55.19140625 16.39453125 C-52.76910866 15.99793936 -52.76910866 15.99793936 -49.5625 15 C-43.46858533 13.28942746 -37.33914769 12 -31 12 C-31 11.34 -31 10.68 -31 10 C-30.32195312 9.76925781 -29.64390625 9.53851563 -28.9453125 9.30078125 C-1.56207281 -0.29473072 -1.56207281 -0.29473072 0 0 Z " fill="#292929" transform="translate(189,19)"/>
<path d="M0 0 C2.70116796 1.54731389 4.89993271 3.13200963 7.3125 5.125 C9.24641472 6.99298306 9.24641472 6.99298306 11.328125 6.53515625 C14.46544478 5.36737611 16.68046334 3.33322656 19.2421875 1.22265625 C25.79947609 -3.17609428 33.82644956 -3.35880411 41.4375 -2.25 C44.86242723 -1.39932814 48.20728568 -0.34075104 51.5625 0.75 C61.91728364 4.11605799 70.38417944 5.77666028 80.4375 0.75 C81.7575 0.75 83.0775 0.75 84.4375 0.75 C86.3125 3.3125 86.3125 3.3125 87.2890625 4.94921875 C89.33080875 8.15073243 91.92188779 10.91574358 94.4375 13.75 C92.68074562 17.47264619 90.4449143 20.69241804 88.0703125 24.04296875 C83.43010826 31.73593894 81.76860124 37.93106739 81.9375 46.9375 C81.94595947 47.95054199 81.95441895 48.96358398 81.96313477 50.00732422 C82.12957636 57.07686022 83.2178778 62.92842888 85.46875 69.6328125 C89.80809294 83.59569826 86.35418871 97.25279456 79.89794922 109.91357422 C71.20643738 125.79192585 56.14837085 136.49535046 40.4375 144.75 C39.83437988 145.06743164 39.23125977 145.38486328 38.60986328 145.71191406 C13.52302669 158.80244961 13.52302669 158.80244961 4.3203125 156.13671875 C-3.29088384 153.22806291 -10.55255712 149.39132754 -17.78857422 145.66357422 C-19.2211192 144.92581158 -20.65863678 144.19770921 -22.09765625 143.47265625 C-40.37158327 133.87457496 -53.95483182 120.58707094 -62.5625 101.75 C-63.08046143 100.62102295 -63.08046143 100.62102295 -63.60888672 99.46923828 C-65.372737 94.4396007 -64.94323426 89.15481745 -64.9375 83.875 C-64.93943359 82.0482373 -64.93943359 82.0482373 -64.94140625 80.18457031 C-64.84784643 72.21284868 -63.92412364 65.68109875 -61.45703125 58.10546875 C-59.20359868 49.65263654 -60.1636958 40.31767575 -61.5625 31.75 C-62.2225 31.75 -62.8825 31.75 -63.5625 31.75 C-63.954375 30.76 -64.34625 29.77 -64.75 28.75 C-65.99041232 25.78978896 -67.50488857 23.27347803 -69.3125 20.625 C-71.57880976 17.11696962 -71.57880976 17.11696962 -71.4375 13.9375 C-71.14875 13.215625 -70.86 12.49375 -70.5625 11.75 C-70.2325 10.76 -69.9025 9.77 -69.5625 8.75 C-68.9025 8.75 -68.2425 8.75 -67.5625 8.75 C-67.315 8.1725 -67.0675 7.595 -66.8125 7 C-65.26865444 4.221078 -64.21276215 2.56333726 -61.5625 0.75 C-59.63161127 1.21499804 -57.70206672 1.68824918 -55.78759766 2.21679688 C-52.21680316 3.07247113 -48.72242623 3.17456168 -45.0625 3.1875 C-44.28422852 3.19136719 -43.50595703 3.19523438 -42.70410156 3.19921875 C-37.18200416 3.09168906 -32.50124491 2.08892789 -27.3125 0.25 C-18.05799135 -3.02187679 -9.12730725 -4.34120079 0 0 Z " fill="#080D08" transform="translate(218.5625,131.25)"/>
<path d="M0 0 C51.81 0 103.62 0 157 0 C157.33 8.58 157.66 17.16 158 26 C161.28578862 31.19059362 162.73703526 33.36752417 167 37 C171.0039405 41.16330131 171.0039405 41.16330131 170.98828125 44.48828125 C169.79854703 47.51199311 168.21104636 49.64586571 166.1875 52.1875 C159.65262013 60.92409566 156.16799235 69.82608704 157.2890625 80.83984375 C157.92648905 84.95070479 158.72140688 88.96677114 159.8046875 92.984375 C164.60534264 110.9982619 162.6998942 127.8548351 153.875 144.25 C147.94191017 153.7506994 139.7779815 162.09188438 131 169 C130.33613281 169.52464844 129.67226563 170.04929687 128.98828125 170.58984375 C117.35395105 179.21914625 104.00366128 185.93447211 90.75 191.6875 C89.98888916 192.02644287 89.22777832 192.36538574 88.44360352 192.71459961 C80.54956574 196.00952509 75.34954715 195.73923505 67.47265625 192.54296875 C64.99140141 191.4433445 62.52427856 190.32852956 60.0625 189.1875 C59.42026489 188.89510437 58.77802979 188.60270874 58.11633301 188.30145264 C47.44260338 183.43213296 37.48406663 177.92682912 28 171 C27.13117188 170.38898438 26.26234375 169.77796875 25.3671875 169.1484375 C10.0967831 157.92176388 -2.59448962 142.08276969 -5.7109375 122.92578125 C-6.77316221 112.1743447 -6.52695778 102.6482188 -3.5 92.25 C0.07312572 79.87802088 0.49723101 70.22259969 -5.1328125 58.2890625 C-7.90734422 53.40170746 -11.2290158 49.15382523 -15 45 C-13.2850816 41.0342512 -10.65226582 37.80587759 -8 34.4375 C1.88215805 21.80245507 -0.91269063 22.81726587 0 0 Z M40.25 29.5 C34.24999996 31.62869951 28.87277105 32.46916594 22.5 32.4375 C21.77071289 32.43492187 21.04142578 32.43234375 20.29003906 32.4296875 C16.54410472 32.32682431 13.28630288 31.86075923 9.6875 30.80078125 C6.18125144 29.63594881 6.18125144 29.63594881 3.90625 31.046875 C3.4421875 31.60890625 2.978125 32.1709375 2.5 32.75 C2.0153125 33.30171875 1.530625 33.8534375 1.03125 34.421875 C-0.18234201 35.96483959 -0.18234201 35.96483959 0 38 C-0.66 38 -1.32 38 -2 38 C-3.4601455 40.31905462 -4.04736363 41.56571198 -3.74609375 44.328125 C-2.91148324 47.31699195 -1.67543285 49.45671862 0 52.0625 C1.91219432 55.045707 3.35292477 57.49770531 4 61 C4.66 61 5.32 61 6 61 C7.63603491 71.02071383 8.17046572 81.01454167 5 90.75 C2.80659401 98.12924445 2.54949955 105.19638222 2.5 112.875 C2.48195312 114.02838867 2.46390625 115.18177734 2.4453125 116.37011719 C2.49513241 123.53795738 3.55216231 128.72882627 7 135 C7.43441406 135.94488281 7.86882812 136.88976562 8.31640625 137.86328125 C19.47320762 159.79216669 43.75594952 174.27684295 66 183 C66.64324219 183.27714844 67.28648437 183.55429687 67.94921875 183.83984375 C74.72325833 186.63978011 80.34191513 186.65973423 87.23046875 184.171875 C92.96591147 181.74503041 98.49138698 178.8927469 104.01611328 176.02441406 C105.82392926 175.09091716 107.6438081 174.18087578 109.46484375 173.2734375 C129.60387648 162.97201712 145.62248022 147.78808372 153 126 C155.95594496 115.66154572 155.36677656 105.76638372 151.9375 95.625 C148.07238276 82.75085485 147.45864923 67.94663566 153.75 55.8125 C155.99016998 51.67848159 158.49980908 48.17697509 162 45 C160.52501821 41.75355767 158.66337381 39.15385708 156.4375 36.375 C153.09722222 32.19444444 153.09722222 32.19444444 152 30 C149.0288315 30.41458165 146.3827902 30.83862766 143.609375 32.0078125 C135.29165365 35.17053888 127.20366033 32.63617843 119.125 30 C109.13286037 26.76397835 98.82491233 24.48033846 88.73828125 28.9296875 C86.05709357 30.58057609 83.84026905 32.64826941 81.640625 34.890625 C80 36 80 36 78.00390625 35.8203125 C75.92982464 34.97127324 74.4443947 34.00871181 72.6875 32.625 C62.43582024 25.19468589 52.07626668 25.27853125 40.25 29.5 Z " fill="#020401" transform="translate(151,102)"/>
<path d="M0 0 C2.70116796 1.54731389 4.89993271 3.13200963 7.3125 5.125 C9.24641472 6.99298306 9.24641472 6.99298306 11.328125 6.53515625 C14.46544478 5.36737611 16.68046334 3.33322656 19.2421875 1.22265625 C25.79947609 -3.17609428 33.82644956 -3.35880411 41.4375 -2.25 C44.86242723 -1.39932814 48.20728568 -0.34075104 51.5625 0.75 C61.91728364 4.11605799 70.38417944 5.77666028 80.4375 0.75 C81.7575 0.75 83.0775 0.75 84.4375 0.75 C86.3125 3.3125 86.3125 3.3125 87.2890625 4.94921875 C89.33080875 8.15073243 91.92188779 10.91574358 94.4375 13.75 C92.68074562 17.47264619 90.4449143 20.69241804 88.0703125 24.04296875 C83.43010826 31.73593894 81.76860124 37.93106739 81.9375 46.9375 C81.94595947 47.95054199 81.95441895 48.96358398 81.96313477 50.00732422 C82.12957636 57.07686022 83.2178778 62.92842888 85.46875 69.6328125 C89.80809294 83.59569826 86.35418871 97.25279456 79.89794922 109.91357422 C71.20643738 125.79192585 56.14837085 136.49535046 40.4375 144.75 C39.83437988 145.06743164 39.23125977 145.38486328 38.60986328 145.71191406 C13.52302669 158.80244961 13.52302669 158.80244961 4.3203125 156.13671875 C-3.29088384 153.22806291 -10.55255712 149.39132754 -17.78857422 145.66357422 C-19.2211192 144.92581158 -20.65863678 144.19770921 -22.09765625 143.47265625 C-40.37158327 133.87457496 -53.95483182 120.58707094 -62.5625 101.75 C-63.08046143 100.62102295 -63.08046143 100.62102295 -63.60888672 99.46923828 C-65.372737 94.4396007 -64.94323426 89.15481745 -64.9375 83.875 C-64.93943359 82.0482373 -64.93943359 82.0482373 -64.94140625 80.18457031 C-64.84784643 72.21284868 -63.92412364 65.68109875 -61.45703125 58.10546875 C-59.20359868 49.65263654 -60.1636958 40.31767575 -61.5625 31.75 C-62.2225 31.75 -62.8825 31.75 -63.5625 31.75 C-63.954375 30.76 -64.34625 29.77 -64.75 28.75 C-65.99041232 25.78978896 -67.50488857 23.27347803 -69.3125 20.625 C-71.57880976 17.11696962 -71.57880976 17.11696962 -71.4375 13.9375 C-71.14875 13.215625 -70.86 12.49375 -70.5625 11.75 C-70.2325 10.76 -69.9025 9.77 -69.5625 8.75 C-68.9025 8.75 -68.2425 8.75 -67.5625 8.75 C-67.315 8.1725 -67.0675 7.595 -66.8125 7 C-65.26865444 4.221078 -64.21276215 2.56333726 -61.5625 0.75 C-59.63161127 1.21499804 -57.70206672 1.68824918 -55.78759766 2.21679688 C-52.21680316 3.07247113 -48.72242623 3.17456168 -45.0625 3.1875 C-44.28422852 3.19136719 -43.50595703 3.19523438 -42.70410156 3.19921875 C-37.18200416 3.09168906 -32.50124491 2.08892789 -27.3125 0.25 C-18.05799135 -3.02187679 -9.12730725 -4.34120079 0 0 Z M-28.59765625 7.8515625 C-32.59627712 9.06326579 -36.34260819 9.13201078 -40.5 9.125 C-41.23476562 9.12628906 -41.96953125 9.12757813 -42.7265625 9.12890625 C-46.58995373 9.05035301 -49.17928866 8.52107708 -52.5625 6.75 C-55.62301474 6.86446807 -56.51851079 7.70593052 -58.703125 9.89453125 C-59.39921875 10.77496094 -60.0953125 11.65539062 -60.8125 12.5625 C-61.51890625 13.43519531 -62.2253125 14.30789062 -62.953125 15.20703125 C-64.91901609 17.81175535 -64.91901609 17.81175535 -64.5625 21.75 C-63.9025 21.75 -63.2425 21.75 -62.5625 21.75 C-60.69811181 25.3353619 -59.09326853 29.01312388 -57.5625 32.75 C-57.27890625 33.35070312 -56.9953125 33.95140625 -56.703125 34.5703125 C-54.49530652 39.88157393 -54.24539267 45.0099245 -54.1875 50.6875 C-54.17372314 51.42653564 -54.15994629 52.16557129 -54.14575195 52.92700195 C-54.18025451 57.12021275 -54.73478234 60.63195335 -56.046875 64.62109375 C-60.02666384 76.93988425 -59.33476412 91.86028885 -53.67724609 103.51489258 C-50.48010235 109.45322466 -46.3698444 114.08903308 -41.5625 118.75 C-40.716875 119.66394531 -39.87125 120.57789063 -39 121.51953125 C-30.51713726 130.53257291 -21.28453656 136.70056919 -9.5625 140.75 C-8.95019531 141.2140625 -8.33789062 141.678125 -7.70703125 142.15625 C-1.3539835 146.87764068 6.554739 149.85635242 14.4375 148.75 C16.95816803 147.52148372 16.95816803 147.52148372 19.4375 145.75 C20.78521759 145.12307361 22.14487996 144.52156431 23.51171875 143.9375 C46.13383589 134.02482097 67.06750019 121.30450751 77.66796875 98.05078125 C81.53348134 86.78090651 80.19450773 71.02102318 76.4375 59.75 C75.7775 59.75 75.1175 59.75 74.4375 59.75 C75.03505812 33.12878572 75.03505812 33.12878572 82.75 24.75 C83.28238281 24.275625 83.81476563 23.80125 84.36328125 23.3125 C85.67480507 21.74183401 85.67480507 21.74183401 85.328125 19.39453125 C84.28154889 16.28693464 82.81190738 14.07873733 80.875 11.4375 C80.23433594 10.55449219 79.59367188 9.67148438 78.93359375 8.76171875 C78.19302734 7.76591797 78.19302734 7.76591797 77.4375 6.75 C73.98641377 7.41481315 73.98641377 7.41481315 70.5859375 8.29296875 C62.24771174 10.06673678 53.35214941 9.32377917 45.3125 6.75 C36.71818149 4.00608987 27.84332899 2.98155662 19.3125 6.5 C16.1667143 8.1402607 13.71077338 9.98253676 11.4375 12.75 C9.24221341 11.69301016 7.14843661 10.57504058 5.0625 9.3125 C-0.67410164 5.89785616 -5.01511317 4.22181481 -11.75 4.3125 C-12.50539062 4.31572266 -13.26078125 4.31894531 -14.0390625 4.32226562 C-19.49098064 4.45739864 -23.5935441 5.67720252 -28.59765625 7.8515625 Z " fill="#5CAA24" transform="translate(218.5625,131.25)"/>
<path d="M0 0 C4.35994067 -0.024727 8.71984414 -0.04287281 13.07983398 -0.05493164 C14.56291413 -0.05995903 16.04598933 -0.06678185 17.52905273 -0.07543945 C19.66130801 -0.08757482 21.79349773 -0.09324425 23.92578125 -0.09765625 C25.20880127 -0.10289307 26.49182129 -0.10812988 27.8137207 -0.11352539 C31 0 31 0 34 1 C34.33 0.67 34.66 0.34 35 0 C37.37541051 -0.08838648 39.7223358 -0.11537523 42.09765625 -0.09765625 C44.04297241 -0.09390991 44.04297241 -0.09390991 46.02758789 -0.09008789 C47.68910889 -0.08098389 49.35062988 -0.07187988 51.0625 -0.0625 C56.321875 -0.041875 61.58125 -0.02125 67 0 C67 12.87 67 25.74 67 39 C68.65 39 70.3 39 72 39 C72 36.03 72 33.06 72 30 C73.98 30 75.96 30 78 30 C78 32.97 78 35.94 78 39 C76.35 39 74.7 39 73 39 C73.04125 40.2375 73.0825 41.475 73.125 42.75 C73.13658291 46.01637962 72.8568702 48.2146947 71 51 C69.68 51 68.36 51 67 51 C67 50.34 67 49.68 67 49 C64.36 49 61.72 49 59 49 C59 50.32 59 51.64 59 53 C58.01 53 57.02 53 56 53 C55.67 51.35 55.34 49.7 55 48 C51.52085059 47.97112186 48.04173169 47.95324313 44.5625 47.9375 C43.56927734 47.92912109 42.57605469 47.92074219 41.55273438 47.91210938 C40.60849609 47.90888672 39.66425781 47.90566406 38.69140625 47.90234375 C37.37958374 47.89448853 37.37958374 47.89448853 36.04125977 47.88647461 C34.00559794 47.77215191 34.00559794 47.77215191 33 49 C27.71788052 49.92668763 22.67063952 50.16919265 17.359375 49.32421875 C11.94216046 48.5798002 6.45413263 48.36003404 1 48 C-0.29670966 38.1368383 -0.11124302 28.30202131 -0.0625 18.375 C-0.0574755 16.589845 -0.05291428 14.80468864 -0.04882812 13.01953125 C-0.03789651 8.6796533 -0.0206841 4.33984198 0 0 Z " fill="#547F5D" transform="translate(179,182)"/>
<path d="M0 0 C7.59 0 15.18 0 23 0 C23 0.33 23 0.66 23 1 C21.02 1 19.04 1 17 1 C17 3.31 17 5.62 17 8 C22.61 8 28.22 8 34 8 C34.02313887 12.23184162 34.04299613 16.46345768 34.05493164 20.6953125 C34.05991507 22.13054148 34.06670425 23.56576551 34.07543945 25.00097656 C34.12315577 33.05100017 34.06861751 41.00283763 33 49 C27.64379471 49.68118329 22.74091306 50.18037253 17.359375 49.32421875 C11.94216046 48.5798002 6.45413263 48.36003404 1 48 C-0.29670966 38.1368383 -0.11124302 28.30202131 -0.0625 18.375 C-0.0574755 16.589845 -0.05291428 14.80468864 -0.04882812 13.01953125 C-0.03875406 8.67962561 -0.01916546 4.33991272 0 0 Z " fill="#111512" transform="translate(179,182)"/>
<path d="M0 0 C9.57 0 19.14 0 29 0 C29.061875 2.578125 29.12375 5.15625 29.1875 7.8125 C29.21481201 8.62050049 29.24212402 9.42850098 29.27026367 10.26098633 C29.33206668 15.55810248 29.33206668 15.55810248 27.48828125 18.01171875 C26.99714844 18.33785156 26.50601563 18.66398437 26 19 C26.99 19 27.98 19 29 19 C29 19.66 29 20.32 29 21 C27.35 21.33 25.7 21.66 24 22 C24 18.04 24 14.08 24 10 C18.06 10 12.12 10 6 10 C6 19.57 6 29.14 6 39 C11.94 39 17.88 39 24 39 C23 43 23 43 21 46 C14.07 46 7.14 46 0 46 C0 30.82 0 15.64 0 0 Z " fill="#6BB373" transform="translate(215,183)"/>
<path d="M0 0 C5.61 0 11.22 0 17 0 C17 9.24 17 18.48 17 28 C11.39 28 5.78 28 0 28 C0 18.76 0 9.52 0 0 Z " fill="#0B150C" transform="translate(221,193)"/>
<path d="M0 0 C3.96 0 7.92 0 12 0 C12 15.18 12 30.36 12 46 C10.02 46 8.04 46 6 46 C6 40.06 6 34.12 6 28 C4.02 28 2.04 28 0 28 C0 25.36 0 22.72 0 20 C1.98 20 3.96 20 6 20 C6 15.71 6 11.42 6 7 C4.02 7 2.04 7 0 7 C0 9.31 0 11.62 0 14 C-2.31 14 -4.62 14 -7 14 C-7 11.36 -7 8.72 -7 6 C-4.69 6 -2.38 6 0 6 C0 4.02 0 2.04 0 0 Z " fill="#E7E8E7" transform="translate(269,183)"/>
<path d="M0 0 C2.31243792 -0.02685412 4.6249627 -0.04632841 6.9375 -0.0625 C8.22527344 -0.07410156 9.51304687 -0.08570313 10.83984375 -0.09765625 C14 0 14 0 15 1 C15.08758003 2.99964982 15.10696576 5.0023611 15.09765625 7.00390625 C15.09443359 8.21884766 15.09121094 9.43378906 15.08789062 10.68554688 C15.07951172 11.96494141 15.07113281 13.24433594 15.0625 14.5625 C15.05798828 15.84576172 15.05347656 17.12902344 15.04882812 18.45117188 C15.03699545 21.63416022 15.02051068 24.81705762 15 28 C10 28 5 28 0 28 C0 25.36 0 22.72 0 20 C2.64 20 5.28 20 8 20 C8 16.37 8 12.74 8 9 C5.36 9 2.72 9 0 9 C0 6.03 0 3.06 0 0 Z " fill="#626362" transform="translate(196,202)"/>
<path d="M0 0 C0.66 0 1.32 0 2 0 C1.67 3.3 1.34 6.6 1 10 C1.99 10 2.98 10 4 10 C4.309375 9.030625 4.61875 8.06125 4.9375 7.0625 C6 4 6 4 7 3 C9.19050021 3.09017996 11.378466 3.24666208 13.5625 3.4375 C14.76003906 3.53933594 15.95757812 3.64117187 17.19140625 3.74609375 C18.58166016 3.87177734 18.58166016 3.87177734 20 4 C19.67 6.64 19.34 9.28 19 12 C16.36 12 13.72 12 11 12 C11 12.66 11 13.32 11 14 C7.79191085 16.1387261 6.72301503 16.47730962 3 16 C2.34 15.01 1.68 14.02 1 13 C-2.54171978 12.83330682 -2.54171978 12.83330682 -6 13 C-6.33 12.67 -6.66 12.34 -7 12 C-7.99 12 -8.98 12 -10 12 C-10.99 12 -11.98 12 -13 12 C-14 11 -14 11 -14.25 8.1875 C-13.97253 4.64975756 -13.67535978 3.31864514 -11 1 C-7.9375 0.625 -7.9375 0.625 -5 1 C-4.34 1.66 -3.68 2.32 -3 3 C-2.34 3 -1.68 3 -1 3 C-0.67 2.01 -0.34 1.02 0 0 Z " fill="#152600" transform="translate(209,110)"/>
<path d="M0 0 C4.75 0.875 4.75 0.875 7 2 C7 4.31 7 6.62 7 9 C8.32 9 9.64 9 11 9 C13.8125 11.6875 13.8125 11.6875 16 15 C15.81395349 19.18604651 15.81395349 19.18604651 14 21 C12.00041636 21.04080783 9.99954746 21.04254356 8 21 C8 21.99 8 22.98 8 24 C8.9590625 24.309375 8.9590625 24.309375 9.9375 24.625 C12 26 12 26 12.75 29.125 C12.87375 30.548125 12.87375 30.548125 13 32 C11.515 32.495 11.515 32.495 10 33 C10 31.35 10 29.7 10 28 C8.35 27.67 6.7 27.34 5 27 C5 28.65 5 30.3 5 32 C3 30.375 3 30.375 1 28 C0.72874085 24.88051976 1.00061555 21.99230565 1.25 18.875 C1.25714026 15.88890108 1.25714026 15.88890108 -0.828125 13.703125 C-3.13352516 11.89529322 -5.23069233 10.92310256 -8 10 C-8 9.67 -8 9.34 -8 9 C-5.03 9.33 -2.06 9.66 1 10 C0.67 6.7 0.34 3.4 0 0 Z " fill="#6B8485" transform="translate(267,147)"/>
<path d="M0 0 C0.33 0 0.66 0 1 0 C1 12.87 1 25.74 1 39 C2.65 39 4.3 39 6 39 C6 36.03 6 33.06 6 30 C7.98 30 9.96 30 12 30 C12 32.97 12 35.94 12 39 C10.35 39 8.7 39 7 39 C7.04125 40.2375 7.0825 41.475 7.125 42.75 C7.13658291 46.01637962 6.8568702 48.2146947 5 51 C3.68 51 2.36 51 1 51 C1 50.34 1 49.68 1 49 C-1.64 49 -4.28 49 -7 49 C-7 50.32 -7 51.64 -7 53 C-7.99 53 -8.98 53 -10 53 C-9.01 50.03 -9.01 50.03 -8 47 C-4.04 47.495 -4.04 47.495 0 48 C-0.33 45.36 -0.66 42.72 -1 40 C-1.99 40 -2.98 40 -4 40 C-4 37.69 -4 35.38 -4 33 C-3.34 33 -2.68 33 -2 33 C-2 34.32 -2 35.64 -2 37 C-1.34 37 -0.68 37 0 37 C0 24.79 0 12.58 0 0 Z " fill="#2B3731" transform="translate(245,182)"/>
<path d="M0 0 C4.95 0 9.9 0 15 0 C15 2.64 15 5.28 15 8 C12.69 8 10.38 8 8 8 C7.67 11.3 7.34 14.6 7 18 C5.00045254 18.04254356 2.99958364 18.04080783 1 18 C0 17 0 17 -0.09765625 13.18359375 C-0.09098089 11.60153318 -0.07901875 10.01948841 -0.0625 8.4375 C-0.05798828 7.63119141 -0.05347656 6.82488281 -0.04882812 5.99414062 C-0.03700518 3.99606244 -0.01906914 1.99802217 0 0 Z " fill="#5F605F" transform="translate(179,183)"/>
<path d="M0 0 C0 15.51 0 31.02 0 47 C-0.33 47 -0.66 47 -1 47 C-1.495 27.695 -1.495 27.695 -2 8 C-7.28 7.67 -12.56 7.34 -18 7 C-18 4.69 -18 2.38 -18 0 C-11.73954057 -0.86351165 -6.21488469 -1.55372117 0 0 Z " fill="#203522" transform="translate(214,183)"/>
<path d="M0 0 C1.65 0 3.3 0 5 0 C5.99250545 5.70690634 6.10477512 11.21408489 6 17 C1 17 -4 17 -9 17 C-9 14.36 -9 11.72 -9 9 C-6.36 9 -3.72 9 -1 9 C-0.67 6.03 -0.34 3.06 0 0 Z " fill="#6B6D6C" transform="translate(205,213)"/>
<path d="M0 0 C4.95 0 9.9 0 15 0 C15.02464247 6.81762424 15.04283244 13.6352228 15.05493164 20.45288086 C15.05997333 22.77417451 15.06680651 25.09546497 15.07543945 27.41674805 C15.08751225 30.74528795 15.09322979 34.07378602 15.09765625 37.40234375 C15.10281754 38.44712387 15.10797882 39.49190399 15.11329651 40.56834412 C15.11337204 41.52926468 15.11344757 42.49018524 15.11352539 43.48022461 C15.115746 44.33071884 15.11796661 45.18121307 15.12025452 46.05747986 C15 48 15 48 14 49 C10.5 49.125 10.5 49.125 7 49 C6 48 6 48 5.88647461 46.23413086 C5.89432983 45.11083374 5.89432983 45.11083374 5.90234375 43.96484375 C5.90556641 43.15595703 5.90878906 42.34707031 5.91210938 41.51367188 C5.92048828 40.66353516 5.92886719 39.81339844 5.9375 38.9375 C5.94201172 38.08349609 5.94652344 37.22949219 5.95117188 36.34960938 C5.96299627 34.23304337 5.98093231 32.11651315 6 30 C4.02 30 2.04 30 0 30 C0 27.03 0 24.06 0 21 C0.33 21 0.66 21 1 21 C1 23.64 1 26.28 1 29 C2.98 29 4.96 29 7 29 C7 34.94 7 40.88 7 47 C8.98 47 10.96 47 13 47 C13 31.82 13 16.64 13 1 C9.04 1 5.08 1 1 1 C1 2.98 1 4.96 1 7 C0.67 7 0.34 7 0 7 C0 4.69 0 2.38 0 0 Z " fill="#464947" transform="translate(268,182)"/>
<path d="M0 0 C10.23 0 20.46 0 31 0 C31 12.21 31 24.42 31 37 C30.34 37 29.68 37 29 37 C29 35.68 29 34.36 29 33 C28.34 33 27.68 33 27 33 C27 35.31 27 37.62 27 40 C28.485 40.495 28.485 40.495 30 41 C29.34 41 28.68 41 28 41 C28 41.99 28 42.98 28 44 C27.34 44 26.68 44 26 44 C26 36.74 26 29.48 26 22 C27.32 22 28.64 22 30 22 C30 21.34 30 20.68 30 20 C29.01 20 28.02 20 27 20 C27.33 19.01 27.66 18.02 28 17 C28.66 17 29.32 17 30 17 C30 11.72 30 6.44 30 1 C20.1 1 10.2 1 0 1 C0 0.67 0 0.34 0 0 Z " fill="#507357" transform="translate(214,182)"/>
<path d="M0 0 C2.05078125 0.03255208 4.1015625 0.06510417 6.15234375 0.09765625 C6.23327505 2.70244508 6.29279809 5.30472278 6.33984375 7.91015625 C6.37754883 9.01713867 6.37754883 9.01713867 6.41601562 10.14648438 C6.49068874 15.64740387 6.49068874 15.64740387 4.640625 18.109375 C3.90392578 18.59857422 3.90392578 18.59857422 3.15234375 19.09765625 C4.14234375 19.09765625 5.13234375 19.09765625 6.15234375 19.09765625 C6.15234375 19.75765625 6.15234375 20.41765625 6.15234375 21.09765625 C4.50234375 21.42765625 2.85234375 21.75765625 1.15234375 22.09765625 C1.07886719 20.83308594 1.07886719 20.83308594 1.00390625 19.54296875 C0.92914063 18.44726562 0.854375 17.3515625 0.77734375 16.22265625 C0.70773438 15.13210937 0.638125 14.0415625 0.56640625 12.91796875 C0.41980884 9.96719151 0.41980884 9.96719151 -1.84765625 8.09765625 C-2.53515625 4.53515625 -2.53515625 4.53515625 -2.84765625 1.09765625 C-1.84765625 0.09765625 -1.84765625 0.09765625 0 0 Z " fill="#74B87D" transform="translate(237.84765625,182.90234375)"/>
<path d="M0 0 C3 0.5 3 0.5 4.875 2.1875 C6.17322608 4.85607584 6.31702508 6.56751799 6 9.5 C5.67 9.83 5.34 10.16 5 10.5 C6.32 11.16 7.64 11.82 9 12.5 C6.66705225 12.54241723 4.33297433 12.54092937 2 12.5 C1.67 12.17 1.34 11.84 1 11.5 C0.01 11.5 -0.98 11.5 -2 11.5 C-2.99 11.5 -3.98 11.5 -5 11.5 C-6 10.5 -6 10.5 -6.25 7.6875 C-5.87439813 2.89857611 -4.88709726 0.81451621 0 0 Z " fill="#0C1700" transform="translate(201,110.5)"/>
<path d="M0 0 C0.99 0 1.98 0 3 0 C3 0.66 3 1.32 3 2 C3.99 2.66 4.98 3.32 6 4 C5.67 6.64 5.34 9.28 5 12 C4.34 12 3.68 12 3 12 C3.33 9.69 3.66 7.38 4 5 C0.77595022 6.66954819 0.77595022 6.66954819 0.3125 9.625 C0.1578125 10.800625 0.1578125 10.800625 0 12 C-3.3 12 -6.6 12 -10 12 C-10.125 9.125 -10.125 9.125 -10 6 C-8 4 -8 4 -4.875 3.875 C-3.92625 3.91625 -2.9775 3.9575 -2 4 C-1.34 2.68 -0.68 1.36 0 0 Z " fill="#0A1300" transform="translate(241,110)"/>
<path d="M0 0 C0.66 0 1.32 0 2 0 C2 2.31 2 4.62 2 7 C3.32 7 4.64 7 6 7 C8.8125 9.6875 8.8125 9.6875 11 13 C10.81395349 17.18604651 10.81395349 17.18604651 9 19 C7.00041636 19.04080783 4.99954746 19.04254356 3 19 C2.87625 18.360625 2.7525 17.72125 2.625 17.0625 C2.41875 16.381875 2.2125 15.70125 2 15 C1.34 14.67 0.68 14.34 0 14 C0 9.38 0 4.76 0 0 Z " fill="#46524C" transform="translate(272,149)"/>
<path d="M0 0 C0.33 0 0.66 0 1 0 C1.04898438 1.05960938 1.09796875 2.11921875 1.1484375 3.2109375 C1.22346709 4.59898497 1.29901485 5.98700451 1.375 7.375 C1.42140625 8.42300781 1.42140625 8.42300781 1.46875 9.4921875 C1.59499498 13.70185827 1.59499498 13.70185827 4 17 C4.265625 19.53125 4.265625 19.53125 4.25 22.5 C4.25515625 23.4796875 4.2603125 24.459375 4.265625 25.46875 C4 28 4 28 2 30 C1.34 29.67 0.68 29.34 0 29 C0 26.36 0 23.72 0 21 C-0.66 21 -1.32 21 -2 21 C-2.20177072 13.64657821 -2.21211746 7.05112439 0 0 Z " fill="#1C1A19" transform="translate(127,142)"/>
<path d="M0 0 C0.33 0 0.66 0 1 0 C0.53007706 8.47097928 -0.25359884 16.69187796 -2 25 C-2.66 25 -3.32 25 -4 25 C-4.33 30.28 -4.66 35.56 -5 41 C-5.66 40.67 -6.32 40.34 -7 40 C-7.02714434 37.2915983 -7.04690846 34.58347279 -7.0625 31.875 C-7.07087891 31.11445313 -7.07925781 30.35390625 -7.08789062 29.5703125 C-7.10646509 25.2610356 -6.86117265 21.24483526 -6 17 C-5.34 17 -4.68 17 -4 17 C-2.68809064 13.06427191 -1.87832178 9.84737403 -2 5.6875 C-2 2 -2 2 0 0 Z " fill="#1A1817" transform="translate(335,120)"/>
<path d="M0 0 C0.66 0 1.32 0 2 0 C1.67 3.3 1.34 6.6 1 10 C1.99 10 2.98 10 4 10 C4.66 8.02 5.32 6.04 6 4 C7.98 4 9.96 4 12 4 C11.34 4.66 10.68 5.32 10 6 C9.01 5.67 8.02 5.34 7 5 C7.33 6.32 7.66 7.64 8 9 C7.34 9 6.68 9 6 9 C6 9.66 6 10.32 6 11 C7.32 11 8.64 11 10 11 C9.125 14.875 9.125 14.875 8 16 C6.33382885 16.04063832 4.66611905 16.042721 3 16 C2.67 14.68 2.34 13.36 2 12 C-0.31 12 -2.62 12 -5 12 C-4.34 11.34 -3.68 10.68 -3 10 C-2.83322718 6.41656024 -2.83322718 6.41656024 -3 3 C-2.34 3 -1.68 3 -1 3 C-0.67 2.01 -0.34 1.02 0 0 Z " fill="#4A8300" transform="translate(209,110)"/>
<path d="M0 0 C0.66 0 1.32 0 2 0 C1.85904936 1.6254308 1.71207913 3.25034051 1.5625 4.875 C1.48128906 5.77992187 1.40007812 6.68484375 1.31640625 7.6171875 C1 10 1 10 0 12 C-2.31 12 -4.62 12 -7 12 C-7.36627907 6.50581395 -7.36627907 6.50581395 -5.6875 4.1875 C-4 3 -4 3 -1 2 C-0.67 1.34 -0.34 0.68 0 0 Z " fill="#4F8D00" transform="translate(264,110)"/>
<path d="M0 0 C1.65 0.99 3.3 1.98 5 3 C5.33 2.34 5.66 1.68 6 1 C6 1.99 6 2.98 6 4 C6.639375 4.20625 7.27875 4.4125 7.9375 4.625 C10 6 10 6 10.75 9.125 C10.87375 10.548125 10.87375 10.548125 11 12 C10.01 12.33 9.02 12.66 8 13 C8 11.35 8 9.7 8 8 C6.35 7.67 4.7 7.34 3 7 C3 8.65 3 10.3 3 12 C0.9375 10.5 0.9375 10.5 -1 8 C-1.05928384 5.17593353 -0.55954815 2.79774073 0 0 Z " fill="#474A49" transform="translate(269,167)"/>
<path d="M0 0 C0.66 0 1.32 0 2 0 C1.48481088 4.43062642 0.46702882 7.29945676 -2 11 C-3.79905536 13.9504508 -5.50051527 16.88568556 -7 20 C-7.66 20 -8.32 20 -9 20 C-9.33 21.98 -9.66 23.96 -10 26 C-10.99 26.33 -11.98 26.66 -13 27 C-12.01 23.7 -11.02 20.4 -10 17 C-9.34 17 -8.68 17 -8 17 C-7.7525 16.13375 -7.505 15.2675 -7.25 14.375 C-5.92701765 10.80294764 -4.13669124 8.13826526 -2 5 C-1.28426473 3.35380887 -0.5974304 1.69271945 0 0 Z " fill="#6A6A6A" transform="translate(89,66)"/>
<path d="M0 0 C0.99 0 1.98 0 3 0 C3 1.65 3 3.3 3 5 C3.66 5 4.32 5 5 5 C5 7.97 5 10.94 5 14 C4.34 14 3.68 14 3 14 C3 12.68 3 11.36 3 10 C2.34 10 1.68 10 1 10 C1 12.31 1 14.62 1 17 C1.99 17.33 2.98 17.66 4 18 C3.34 18 2.68 18 2 18 C2 18.99 2 19.98 2 21 C1.34 21 0.68 21 0 21 C0 14.07 0 7.14 0 0 Z " fill="#374947" transform="translate(240,205)"/>
<path d="M0 0 C0.33 0 0.66 0 1 0 C0.97268799 0.68924561 0.94537598 1.37849121 0.91723633 2.08862305 C-0.03277363 17.53705115 -0.03277363 17.53705115 5.8581543 31.2121582 C8.13437803 33.61367865 10.52022037 35.80746757 13 38 C14.03848439 39.30358273 15.05782645 40.62519573 16 42 C15.67 42.66 15.34 43.32 15 44 C13.62056407 42.50407837 12.24671669 41.0030031 10.875 39.5 C10.10929687 38.6646875 9.34359375 37.829375 8.5546875 36.96875 C7.71164062 35.9890625 6.86859375 35.009375 6 34 C5.46197754 33.45408203 4.92395508 32.90816406 4.36962891 32.34570312 C-1.0906099 26.24108831 -0.71296285 20.38579973 -0.375 12.5 C-0.34792969 11.29601562 -0.32085937 10.09203125 -0.29296875 8.8515625 C-0.22267343 5.8991589 -0.12432049 2.95053961 0 0 Z " fill="#464544" transform="translate(308,102)"/>
<path d="M0 0 C3.96 0 7.92 0 12 0 C12 0.33 12 0.66 12 1 C10.35 1 8.7 1 7 1 C7 3.31 7 5.62 7 8 C4.69 8 2.38 8 0 8 C0 5.36 0 2.72 0 0 Z " fill="#888A89" transform="translate(262,189)"/>
<path d="M0 0 C2.89327309 1.31170081 4.9173099 2.7320184 7.1875 4.9375 C13.75504783 10.86461774 21.52721255 15.31550909 29 20 C27.13671875 20.59765625 27.13671875 20.59765625 25 21 C22.8125 19.4375 22.8125 19.4375 20 17 C18.63453921 16.08969281 17.25839764 15.1953099 15.875 14.3125 C10.28710192 10.62806805 4.89332582 6.5732017 0 2 C0 1.34 0 0.68 0 0 Z " fill="#3D3D3D" transform="translate(164,261)"/>
<path d="M0 0 C1.65 0.33 3.3 0.66 5 1 C5 2.65 5 4.3 5 6 C5.99 5.67 6.98 5.34 8 5 C8.33 5.99 8.66 6.98 9 8 C4.71 8 0.42 8 -4 8 C-3.01 6.68 -2.02 5.36 -1 4 C-0.29485154 1.85266073 -0.29485154 1.85266073 0 0 Z " fill="#202020" transform="translate(272,174)"/>
<path d="M0 0 C0.33 0 0.66 0 1 0 C1.14546783 3.24952748 1.2341168 6.49821713 1.3125 9.75 C1.35439453 10.67039062 1.39628906 11.59078125 1.43945312 12.5390625 C1.56336035 19.37874128 1.56336035 19.37874128 -1.39453125 22.640625 C-4 24 -4 24 -6 24 C-6 23.34 -6 22.68 -6 22 C-4.68 21.67 -3.36 21.34 -2 21 C-1.97494385 20.39937744 -1.9498877 19.79875488 -1.92407227 19.17993164 C-1.8084472 16.47388563 -1.68557064 13.76821717 -1.5625 11.0625 C-1.52318359 10.11697266 -1.48386719 9.17144531 -1.44335938 8.19726562 C-1.40146484 7.29814453 -1.35957031 6.39902344 -1.31640625 5.47265625 C-1.26141968 4.22367554 -1.26141968 4.22367554 -1.20532227 2.94946289 C-1 1 -1 1 0 0 Z " fill="#6D6D6D" transform="translate(337,423)"/>
<path d="M0 0 C0.763125 0.0825 1.52625 0.165 2.3125 0.25 C2.3125 0.91 2.3125 1.57 2.3125 2.25 C1.508125 2.476875 0.70375 2.70375 -0.125 2.9375 C-0.970625 3.370625 -1.81625 3.80375 -2.6875 4.25 C-3.58136164 6.79775306 -3.58136164 6.79775306 -3.6875 9.25 C-2.6975 9.25 -1.7075 9.25 -0.6875 9.25 C-1.0175 7.93 -1.3475 6.61 -1.6875 5.25 C-0.3675 5.25 0.9525 5.25 2.3125 5.25 C1.9825 7.23 1.6525 9.21 1.3125 11.25 C-0.68704746 11.29254356 -2.68791636 11.29080783 -4.6875 11.25 C-5.6875 10.25 -5.6875 10.25 -5.9375 7.4375 C-5.58963185 3.00218114 -4.70955742 0.43809836 0 0 Z " fill="#529100" transform="translate(200.6875,110.75)"/>
<path d="M0 0 C0.99 0 1.98 0 3 0 C3 0.66 3 1.32 3 2 C3.99 2.66 4.98 3.32 6 4 C5.67 6.64 5.34 9.28 5 12 C4.34 12 3.68 12 3 12 C3.33 9.69 3.66 7.38 4 5 C0.77595022 6.66954819 0.77595022 6.66954819 0.3125 9.625 C0.209375 10.40875 0.10625 11.1925 0 12 C-0.66 12 -1.32 12 -2 12 C-1.85831863 10.56208484 -1.71148957 9.1246763 -1.5625 7.6875 C-1.48128906 6.88699219 -1.40007812 6.08648437 -1.31640625 5.26171875 C-1 3 -1 3 0 0 Z " fill="#508E00" transform="translate(241,110)"/>
<path d="M0 0 C0 4.62 0 9.24 0 14 C-1.32 13.34 -2.64 12.68 -4 12 C-4 8.37 -4 4.74 -4 1 C-1 0 -1 0 0 0 Z " fill="#403A3B" transform="translate(131,170)"/>
<path d="M0 0 C0.99 0.33 1.98 0.66 3 1 C2.34 1 1.68 1 1 1 C1.33 1.99 1.66 2.98 2 4 C2.03954234 6.33299825 2.04401732 8.66708189 2 11 C-0.64 11 -3.28 11 -6 11 C-4.7934375 11.433125 -4.7934375 11.433125 -3.5625 11.875 C-1 13 -1 13 0 15 C-2.31 14.34 -4.62 13.68 -7 13 C-7.33 11.35 -7.66 9.7 -8 8 C-5.69 8 -3.38 8 -1 8 C-0.67 5.36 -0.34 2.72 0 0 Z " fill="#3C382F" transform="translate(266,146)"/>
<path d="M0 0 C0.66 0 1.32 0 2 0 C5 6.5 5 6.5 5 11 C3.54462432 11.83848804 2.08559627 12.67063934 0.625 13.5 C-0.18710937 13.9640625 -0.99921875 14.428125 -1.8359375 14.90625 C-4 16 -4 16 -6 16 C-6 15.34 -6 14.68 -6 14 C-4.68 13.67 -3.36 13.34 -2 13 C-2 12.34 -2 11.68 -2 11 C-1.01 10.67 -0.02 10.34 1 10 C1.33 8.35 1.66 6.7 2 5 C1.34 4.67 0.68 4.34 0 4 C0 2.68 0 1.36 0 0 Z " fill="#5D5D5D" transform="translate(404,151)"/>
<path d="M0 0 C1.65 0 3.3 0 5 0 C4.67 2.64 4.34 5.28 4 8 C1.69 8 -0.62 8 -3 8 C-2.67 6.35 -2.34 4.7 -2 3 C-0.35 3 1.3 3 3 3 C3 2.34 3 1.68 3 1 C2.01 0.67 1.02 0.34 0 0 Z " fill="#508E00" transform="translate(224,114)"/>
<path d="M0 0 C1.65 0 3.3 0 5 0 C5 2.64 5 5.28 5 8 C3.02 8.99 3.02 8.99 1 10 C0.67 6.7 0.34 3.4 0 0 Z " fill="#B8BABC" transform="translate(246,222)"/>
<path d="M0 0 C1.98 0 3.96 0 6 0 C6 2.31 6 4.62 6 7 C4.02 7 2.04 7 0 7 C0 4.69 0 2.38 0 0 Z " fill="#D8D8D8" transform="translate(180,223)"/>
<path d="M0 0 C1.98 0 3.96 0 6 0 C6 2.31 6 4.62 6 7 C4.02 7 2.04 7 0 7 C0 4.69 0 2.38 0 0 Z " fill="#B8B9B8" transform="translate(180,213)"/>
<path d="M0 0 C1.98 0 3.96 0 6 0 C6 2.31 6 4.62 6 7 C4.02 7 2.04 7 0 7 C0 4.69 0 2.38 0 0 Z " fill="#D2D4D2" transform="translate(251,212)"/>
<path d="M0 0 C1.98 0 3.96 0 6 0 C6 2.31 6 4.62 6 7 C4.02 7 2.04 7 0 7 C0 4.69 0 2.38 0 0 Z " fill="#B4B5B5" transform="translate(180,203)"/>
<path d="M0 0 C1.98 0 3.96 0 6 0 C6 2.31 6 4.62 6 7 C4.02 7 2.04 7 0 7 C0 4.69 0 2.38 0 0 Z " fill="#B5B7B4" transform="translate(196,203)"/>
<path d="M0 0 C1.98 0 3.96 0 6 0 C6 2.31 6 4.62 6 7 C4.02 7 2.04 7 0 7 C0 4.69 0 2.38 0 0 Z " fill="#B2B5B2" transform="translate(257,200)"/>
<path d="M0 0 C1.98 0 3.96 0 6 0 C6 2.31 6 4.62 6 7 C4.02 7 2.04 7 0 7 C0 4.69 0 2.38 0 0 Z " fill="#BFC1C0" transform="translate(188,183)"/>
<path d="M0 0 C1.98 0 3.96 0 6 0 C6 2.31 6 4.62 6 7 C4.02 7 2.04 7 0 7 C0 4.69 0 2.38 0 0 Z " fill="#D8D9D9" transform="translate(196,183)"/>
<path d="M0 0 C2.86724686 0.57344937 3.8614515 0.8614515 6 3 C5.625 5.625 5.625 5.625 5 8 C3.35 8 1.7 8 0 8 C0 5.36 0 2.72 0 0 Z " fill="#948B83" transform="translate(277,159)"/>
<path d="M0 0 C2.475 0.495 2.475 0.495 5 1 C5 3.97 5 6.94 5 10 C3.68 9.67 2.36 9.34 1 9 C0.67 6.03 0.34 3.06 0 0 Z " fill="#A59878" transform="translate(267,147)"/>
<path d="M0 0 C4.46839215 -0.21278058 7.82262526 0.40861915 12 2 C12 3.65 12 5.3 12 7 C8.62440315 6.41800054 7.37247717 5.37247717 5 3 C2.40084462 1.80972016 2.40084462 1.80972016 0 1 C0 0.67 0 0.34 0 0 Z " fill="#8C9F9E" transform="translate(259,156)"/>
<path d="M0 0 C0.33 0.99 0.66 1.98 1 3 C0.01 4.485 0.01 4.485 -1 6 C-1.33 5.34 -1.66 4.68 -2 4 C-2.9590625 5.670625 -2.9590625 5.670625 -3.9375 7.375 C-4.29714844 8.00148437 -4.65679687 8.62796875 -5.02734375 9.2734375 C-5.71719051 10.49798475 -6.37144538 11.74289077 -7 13 C-7.66 13 -8.32 13 -9 13 C-5.08333333 0 -5.08333333 0 0 0 Z " fill="#518E21" transform="translate(304,155)"/>
<path d="M0 0 C1.65 0 3.3 0 5 0 C5 2.31 5 4.62 5 7 C3.35 7 1.7 7 0 7 C0 4.69 0 2.38 0 0 Z " fill="#E2E3E3" transform="translate(189,223)"/>
<path d="M0 0 C1.65 0 3.3 0 5 0 C5 2.31 5 4.62 5 7 C3.35 7 1.7 7 0 7 C0 4.69 0 2.38 0 0 Z " fill="#E1E1E1" transform="translate(205,213)"/>
<path d="M0 0 C0.33 0 0.66 0 1 0 C1 2.31 1 4.62 1 7 C2.98 7 4.96 7 7 7 C7 7.99 7 8.98 7 10 C5.02 10 3.04 10 1 10 C1 12.31 1 14.62 1 17 C0.67 17 0.34 17 0 17 C0 11.39 0 5.78 0 0 Z " fill="#515251" transform="translate(179,203)"/>
<path d="M0 0 C1.65 0 3.3 0 5 0 C5 2.31 5 4.62 5 7 C3.35 7 1.7 7 0 7 C0 4.69 0 2.38 0 0 Z " fill="#DFE0E0" transform="translate(180,193)"/>
<path d="M0 0 C1.65 0 3.3 0 5 0 C5 2.31 5 4.62 5 7 C3.35 7 1.7 7 0 7 C0 4.69 0 2.38 0 0 Z " fill="#E0E2E1" transform="translate(205,183)"/>
<path d="M0 0 C1.65 0 3.3 0 5 0 C5 2.31 5 4.62 5 7 C3.35 7 1.7 7 0 7 C0 4.69 0 2.38 0 0 Z " fill="#E2E3E3" transform="translate(180,183)"/>
<path d="M0 0 C0.33 0.99 0.66 1.98 1 3 C-1.31 2.34 -3.62 1.68 -6 1 C-6.33 2.32 -6.66 3.64 -7 5 C-8.65 5 -10.3 5 -12 5 C-11.34 4.67 -10.68 4.34 -10 4 C-10 2.68 -10 1.36 -10 0 C-6.30581799 -1.231394 -3.7943739 -0.64432764 0 0 Z " fill="#575757" transform="translate(276,19)"/>
<path d="M0 0 C0.33 0 0.66 0 1 0 C1.33 1.98 1.66 3.96 2 6 C4.97 6.495 4.97 6.495 8 7 C8 4.69 8 2.38 8 0 C8.33 0 8.66 0 9 0 C9 2.64 9 5.28 9 8 C3.47032059 8.71033431 -1.49983036 9.30267176 -7 8 C-7 7.67 -7 7.34 -7 7 C-4.69 7 -2.38 7 0 7 C0 4.69 0 2.38 0 0 Z " fill="#373938" transform="translate(203,223)"/>
<path d="M0 0 C0 0.33 0 0.66 0 1 C-1.65 1 -3.3 1 -5 1 C-5 3.31 -5 5.62 -5 8 C-3.35 8 -1.7 8 0 8 C0 8.33 0 8.66 0 9 C-5.75 9.125 -5.75 9.125 -8 8 C-8 5.69 -8 3.38 -8 1 C-5.29120665 -0.35439668 -2.99066732 -0.06501451 0 0 Z " fill="#606160" transform="translate(194,222)"/>
<path d="M0 0 C0 0.33 0 0.66 0 1 C-1.65 1 -3.3 1 -5 1 C-5 3.31 -5 5.62 -5 8 C-3.35 8 -1.7 8 0 8 C0 8.33 0 8.66 0 9 C-5.75 9.125 -5.75 9.125 -8 8 C-8 5.69 -8 3.38 -8 1 C-5.29120665 -0.35439668 -2.99066732 -0.06501451 0 0 Z " fill="#626463" transform="translate(210,182)"/>
<path d="M0 0 C0.66 0 1.32 0 2 0 C2.33 1.32 2.66 2.64 3 4 C2.34 4 1.68 4 1 4 C1 11.59 1 19.18 1 27 C0.67 27 0.34 27 0 27 C0 18.09 0 9.18 0 0 Z " fill="#8F7A7B" transform="translate(328,163)"/>
<path d="M0 0 C1.65 0.33 3.3 0.66 5 1 C4.67 2.98 4.34 4.96 4 7 C2.35 6.67 0.7 6.34 -1 6 C-0.67 4.02 -0.34 2.04 0 0 Z " fill="#2C4E00" transform="translate(260,115)"/>
<path d="M0 0 C3.63 0 7.26 0 11 0 C10.67 0.99 10.34 1.98 10 3 C7.03 3 4.06 3 1 3 C0.67 2.01 0.34 1.02 0 0 Z " fill="#727272" transform="translate(241,24)"/>
<path d="M0 0 C1.65 0 3.3 0 5 0 C5 1.98 5 3.96 5 6 C3.35 6 1.7 6 0 6 C0 4.02 0 2.04 0 0 Z " fill="#EAEBEB" transform="translate(205,223)"/>
<path d="M0 0 C1.65 0 3.3 0 5 0 C5 1.98 5 3.96 5 6 C3.35 6 1.7 6 0 6 C0 4.02 0 2.04 0 0 Z " fill="#E8EAE9" transform="translate(197,223)"/>
<path d="M0 0 C1.65 0 3.3 0 5 0 C5 1.98 5 3.96 5 6 C3.35 6 1.7 6 0 6 C0 4.02 0 2.04 0 0 Z " fill="#E8E9E8" transform="translate(205,203)"/>
<path d="M0 0 C1.65 0 3.3 0 5 0 C5 1.98 5 3.96 5 6 C3.35 6 1.7 6 0 6 C0 4.02 0 2.04 0 0 Z " fill="#E8EAE9" transform="translate(263,190)"/>
<path d="M0 0 C1.1484375 1.703125 1.1484375 1.703125 2 4 C1.1015625 6.359375 1.1015625 6.359375 -0.375 8.75 C-1.09816406 9.94882813 -1.09816406 9.94882813 -1.8359375 11.171875 C-2.22007813 11.77515625 -2.60421875 12.3784375 -3 13 C-3.66 13 -4.32 13 -5 13 C-4.34 10.69 -3.68 8.38 -3 6 C-2.34 6 -1.68 6 -1 6 C-0.67 4.02 -0.34 2.04 0 0 Z " fill="#5B5B5B" transform="translate(57,131)"/>
<path d="M0 0 C0.66 0 1.32 0 2 0 C2.3227506 4.62609198 1.84450614 7.28026121 -1 11 C-1.66 11 -2.32 11 -3 11 C-2.44894091 7.0507432 -1.61064629 3.65079826 0 0 Z " fill="#656565" transform="translate(74,93)"/>
<path d="M0 0 C0.78375 0.04125 1.5675 0.0825 2.375 0.125 C1.735625 0.3725 1.09625 0.62 0.4375 0.875 C-1.81241541 1.94062433 -1.81241541 1.94062433 -2.375 4.25 C-2.4575 4.86875 -2.54 5.4875 -2.625 6.125 C-1.305 6.125 0.015 6.125 1.375 6.125 C1.375 6.785 1.375 7.445 1.375 8.125 C-0.605 8.125 -2.585 8.125 -4.625 8.125 C-4.75 5.25 -4.75 5.25 -4.625 2.125 C-2.625 0.125 -2.625 0.125 0 0 Z " fill="#559700" transform="translate(235.625,113.875)"/>
<path d="M0 0 C1.65 0 3.3 0 5 0 C5 2.64 5 5.28 5 8 C2.69 8 0.38 8 -2 8 C-1.67 7.01 -1.34 6.02 -1 5 C-1 5.66 -1 6.32 -1 7 C-0.01 6.67 0.98 6.34 2 6 C2.33 5.34 2.66 4.68 3 4 C2.34 3.67 1.68 3.34 1 3 C1.99 3 2.98 3 4 3 C4 2.34 4 1.68 4 1 C2.68 0.67 1.36 0.34 0 0 Z " fill="#5CA400" transform="translate(250,114)"/>
<path d="M0 0 C1.32 0.33 2.64 0.66 4 1 C0.87378374 4.39417765 -1.56541027 6.6062718 -6 8 C-4.02 5.36 -2.04 2.72 0 0 Z " fill="#27310D" transform="translate(163,138)"/>
<path d="M0 0 C2.12508244 3.18762365 2.5020163 5.26512223 3 9 C3.99 9.33 4.98 9.66 6 10 C5.01 10.495 5.01 10.495 4 11 C4 11.66 4 12.32 4 13 C3.34 13 2.68 13 2 13 C0.54815522 8.46298506 -0.23509196 4.81938524 0 0 Z " fill="#3D3938" transform="translate(309,186)"/>
<path d="M0 0 C2 3 2 3 1.625 5.1875 C1.41875 5.785625 1.2125 6.38375 1 7 C0.34 7 -0.32 7 -1 7 C-1.33 8.32 -1.66 9.64 -2 11 C-2.66 11 -3.32 11 -4 11 C-2.95902388 7.13351728 -1.96301592 3.50538557 0 0 Z " fill="#616161" transform="translate(66,112)"/>
<path d="M0 0 C1.65 0.33 3.3 0.66 5 1 C4.34 2.98 3.68 4.96 3 7 C2.01 7 1.02 7 0 7 C-1.04449911 3.86650268 -0.93423645 3.01031744 0 0 Z " fill="#2D5000" transform="translate(249,114)"/>
<path d="M0 0 C0.66 0 1.32 0 2 0 C1.49135273 4.37436651 0.57073772 7.40096719 -2 11 C-2.99 11.495 -2.99 11.495 -4 12 C-3.52309796 10.37433394 -3.04340334 8.74948689 -2.5625 7.125 C-2.29566406 6.22007813 -2.02882813 5.31515625 -1.75390625 4.3828125 C-1 2 -1 2 0 0 Z " fill="#555555" transform="translate(89,66)"/>
<path d="M0 0 C6.75 0.875 6.75 0.875 9 2 C9 2.66 9 3.32 9 4 C9.66 4.33 10.32 4.66 11 5 C10.01 5.495 10.01 5.495 9 6 C8.34 5.67 7.68 5.34 7 5 C7 4.34 7 3.68 7 3 C4.69 2.67 2.38 2.34 0 2 C0 1.34 0 0.68 0 0 Z " fill="#5A5A5A" transform="translate(277,22)"/>
<path d="M0 0 C0.33 1.32 0.66 2.64 1 4 C0.34 4 -0.32 4 -1 4 C-1.33 5.98 -1.66 7.96 -2 10 C-2.99 10.33 -3.98 10.66 -5 11 C-4.01 8.03 -3.02 5.06 -2 2 C-1.34 2 -0.68 2 0 2 C0 1.34 0 0.68 0 0 Z " fill="#585858" transform="translate(51,144)"/>
<path d="M0 0 C3.82524236 1.450954 5.19090966 3.38181932 7 7 C7 7.66 7 8.32 7 9 C6.01 9 5.02 9 4 9 C0 2.25 0 2.25 0 0 Z " fill="#555555" transform="translate(347,47)"/>
<path d="M0 0 C0.66 0 1.32 0 2 0 C2 1.32 2 2.64 2 4 C2.66 4 3.32 4 4 4 C4.33 5.32 4.66 6.64 5 8 C3.35 7.67 1.7 7.34 0 7 C0 4.69 0 2.38 0 0 Z " fill="#202E3D" transform="translate(241,215)"/>
<path d="M0 0 C1.5625 1.1875 1.5625 1.1875 3 3 C2.6875 5.6875 2.6875 5.6875 2 8 C1.34 8 0.68 8 0 8 C0 6.35 0 4.7 0 3 C-0.66 2.67 -1.32 2.34 -2 2 C-1.34 2 -0.68 2 0 2 C0 1.34 0 0.68 0 0 Z " fill="#484948" transform="translate(277,172)"/>
<path d="M0 0 C0.66 0 1.32 0 2 0 C2.33 1.98 2.66 3.96 3 6 C1.35 6 -0.3 6 -2 6 C-1.34 4.02 -0.68 2.04 0 0 Z " fill="#61946D" transform="translate(242,223)"/>
<path d="M0 0 C1.32 0 2.64 0 4 0 C4 1.65 4 3.3 4 5 C2.68 5 1.36 5 0 5 C0 3.35 0 1.7 0 0 Z " fill="#F3F5F4" transform="translate(181,214)"/>
<path d="M0 0 C1.32 0 2.64 0 4 0 C4 1.65 4 3.3 4 5 C2.68 5 1.36 5 0 5 C0 3.35 0 1.7 0 0 Z " fill="#F1F2F2" transform="translate(181,204)"/>
<path d="M0 0 C1.32 0 2.64 0 4 0 C4 1.65 4 3.3 4 5 C2.68 5 1.36 5 0 5 C0 3.35 0 1.7 0 0 Z " fill="#F1F3F2" transform="translate(258,201)"/>
<path d="M0 0 C1.32 0 2.64 0 4 0 C4 1.65 4 3.3 4 5 C2.68 5 1.36 5 0 5 C0 3.35 0 1.7 0 0 Z " fill="#F3F5F2" transform="translate(197,204)"/>
<path d="M0 0 C1.32 0 2.64 0 4 0 C4 1.65 4 3.3 4 5 C2.68 5 1.36 5 0 5 C0 3.35 0 1.7 0 0 Z " fill="#F8F9F9" transform="translate(189,184)"/>
<path d="M0 0 C1.98 0.495 1.98 0.495 4 1 C3.67 2.65 3.34 4.3 3 6 C1.68 6 0.36 6 -1 6 C-0.67 4.02 -0.34 2.04 0 0 Z " fill="#366000" transform="translate(216,115)"/>
<path d="M0 0 C0.99 0.33 1.98 0.66 3 1 C2.67 1.99 2.34 2.98 2 4 C3.65 4 5.3 4 7 4 C7 4.33 7 4.66 7 5 C4.69 5 2.38 5 0 5 C-0.5625 3.0625 -0.5625 3.0625 -1 1 C-0.67 0.67 -0.34 0.34 0 0 Z " fill="#3F6650" transform="translate(238,225)"/>
<path d="M0 0 C0.99 0.33 1.98 0.66 3 1 C3.625 4.375 3.625 4.375 4 8 C3.34 8.66 2.68 9.32 2 10 C2 8.02 2 6.04 2 4 C1.34 4 0.68 4 0 4 C0 2.68 0 1.36 0 0 Z " fill="#2C2320" transform="translate(128,183)"/>
<path d="M0 0 C0.33 0.99 0.66 1.98 1 3 C1.66 3 2.32 3 3 3 C3 3.99 3 4.98 3 6 C1.02 5.34 -0.96 4.68 -3 4 C-3 3.34 -3 2.68 -3 2 C-2.01 2 -1.02 2 0 2 C0 1.34 0 0.68 0 0 Z " fill="#5A5D5F" transform="translate(274,168)"/>
<path d="M0 0 C1.98 0 3.96 0 6 0 C6 0.99 6 1.98 6 3 C4.02 3 2.04 3 0 3 C0 2.01 0 1.02 0 0 Z " fill="#393939" transform="translate(180,220)"/>
<path d="M0 0 C0.99 0.495 0.99 0.495 2 1 C2 1.66 2 2.32 2 3 C3.65 3.33 5.3 3.66 7 4 C7 4.66 7 5.32 7 6 C4.03 5.505 4.03 5.505 1 5 C0.67 3.35 0.34 1.7 0 0 Z " fill="#6E6E6E" transform="translate(43,158)"/>
<path d="M0 0 C0.33 0.66 0.66 1.32 1 2 C1.66 2.33 2.32 2.66 3 3 C1.71937515 4.7074998 0.38232443 6.37373596 -1 8 C-1.66 8 -2.32 8 -3 8 C-2.67 6.35 -2.34 4.7 -2 3 C-1.34 3 -0.68 3 0 3 C0 2.01 0 1.02 0 0 Z " fill="#646464" transform="translate(61,123)"/>
<path d="M0 0 C0.66 0 1.32 0 2 0 C2.33 2.31 2.66 4.62 3 7 C2.01 7.33 1.02 7.66 0 8 C0 5.36 0 2.72 0 0 Z " fill="#313331" transform="translate(210,183)"/>
<path d="M0 0 C2.76276177 0.52268466 5.3260876 1.10869587 8 2 C8 2.66 8 3.32 8 4 C2.25 3.125 2.25 3.125 0 2 C0 1.34 0 0.68 0 0 Z " fill="#585858" transform="translate(87,180)"/>
<path d="M0 0 C0.99 0.33 1.98 0.66 3 1 C3 2.65 3 4.3 3 6 C2.01 6 1.02 6 0 6 C0 4.02 0 2.04 0 0 Z " fill="#7FB3BF" transform="translate(271,164)"/>
</svg>
