<?xml version="1.0" encoding="UTF-8"?>
<svg version="1.1" xmlns="http://www.w3.org/2000/svg" width="472" height="472">
<path d="M0 0 C0 0.66 0 1.32 0 2 C1.918125 2.185625 1.918125 2.185625 3.875 2.375 C5.91687815 2.58125032 7.9585023 2.79001738 10 3 C10.73395996 3.07508789 11.46791992 3.15017578 12.22412109 3.22753906 C14.67079322 3.4800796 17.11667262 3.73941471 19.5625 4 C20.37251465 4.0829834 21.1825293 4.1659668 22.01708984 4.25146484 C27.88582124 4.88582124 27.88582124 4.88582124 29 6 C30.54955559 6.09899523 32.10353673 6.13079524 33.65625 6.1328125 C35.06583984 6.13474609 35.06583984 6.13474609 36.50390625 6.13671875 C37.98697266 6.13091797 37.98697266 6.13091797 39.5 6.125 C40.48871094 6.12886719 41.47742188 6.13273437 42.49609375 6.13671875 C43.43582031 6.13542969 44.37554687 6.13414063 45.34375 6.1328125 C46.64602539 6.13112061 46.64602539 6.13112061 47.97460938 6.12939453 C49.99604154 6.2241537 49.99604154 6.2241537 51 5 C52.32917112 4.78596518 53.66777455 4.62963442 55.0078125 4.5 C56.24144531 4.37625 56.24144531 4.37625 57.5 4.25 C58.36625 4.1675 59.2325 4.085 60.125 4 C65.77252845 3.44733667 71.38895335 2.85154095 77 2 C77 1.34 77 0.68 77 0 C82.95703125 -1.07421875 82.95703125 -1.07421875 85 -1 C86.03240616 -0.0334921 87.03013072 0.97075097 88 2 C90.2603044 2.99373439 90.2603044 2.99373439 92.6875 3.6875 C93.49574219 3.93886719 94.30398438 4.19023437 95.13671875 4.44921875 C95.75160156 4.63097656 96.36648438 4.81273437 97 5 C97 5.66 97 6.32 97 7 C102.94 8.485 102.94 8.485 109 10 C109 10.66 109 11.32 109 12 C109.99966797 12.07347656 109.99966797 12.07347656 111.01953125 12.1484375 C127.15538173 13.45735964 140.63856292 17.63516047 155 25 C155 25.66 155 26.32 155 27 C155.8353125 27.0928125 155.8353125 27.0928125 156.6875 27.1875 C160.027159 28.3608937 161.71500747 30.34446814 164 33 C164.8125 35.3125 164.8125 35.3125 165 37 C165.66 37 166.32 37 167 37 C173.51936219 48.52164009 173.51936219 48.52164009 175 54 C175.66 54 176.32 54 177 54 C180 59.625 180 59.625 180 63 C180.66 63 181.32 63 182 63 C183.34277732 65.7663534 184.67255228 68.53876211 186 71.3125 C186.3815625 72.09818359 186.763125 72.88386719 187.15625 73.69335938 C187.5171875 74.45068359 187.878125 75.20800781 188.25 75.98828125 C188.58515625 76.68477783 188.9203125 77.38127441 189.265625 78.09887695 C190 80 190 80 190 83 C190.66 83 191.32 83 192 83 C193.33912585 86.12254943 194.67030658 89.24842358 196 92.375 C196.3815625 93.26445313 196.763125 94.15390625 197.15625 95.0703125 C197.5171875 95.92109375 197.878125 96.771875 198.25 97.6484375 C198.58515625 98.43395996 198.9203125 99.21948242 199.265625 100.02880859 C200 102 200 102 200 104 C200.66 104 201.32 104 202 104 C202.99 107.3 203.98 110.6 205 114 C205.66 114 206.32 114 207 114 C207.27263672 114.81404297 207.27263672 114.81404297 207.55078125 115.64453125 C207.80214844 116.35996094 208.05351562 117.07539063 208.3125 117.8125 C208.55613281 118.52019531 208.79976563 119.22789062 209.05078125 119.95703125 C209.8865937 122.06182881 209.8865937 122.06182881 211.53125 123.53125 C213.890714 125.890714 214.22319617 128.83303054 215 132 C215.66 132 216.32 132 217 132 C220 138.5 220 138.5 220 143 C218.10807525 143.98669759 216.21128022 144.9640602 214.3125 145.9375 C213.25675781 146.48277344 212.20101563 147.02804688 211.11328125 147.58984375 C208.33765953 148.8470576 205.99727874 149.56069569 203 150 C203 150.66 203 151.32 203 152 C199.7 152.99 196.4 153.98 193 155 C193 155.66 193 156.32 193 157 C192.38253906 157.24234375 191.76507813 157.4846875 191.12890625 157.734375 C180.97464918 161.60461628 180.97464918 161.60461628 171.375 166.625 C167.05637208 169.12525827 162.9545483 170 158 170 C158 170.66 158 171.32 158 172 C154 172 154 172 151.375 169.8125 C148.34807675 166.22798562 147 163.69870667 147 159 C146.34 159 145.68 159 145 159 C144.49632243 157.54293274 143.99717444 156.08429904 143.5 154.625 C143.08234375 153.40683594 143.08234375 153.40683594 142.65625 152.1640625 C142 150 142 150 142 148 C141.34 148 140.68 148 140 148 C139.93834192 167.7448149 140.06098331 187.48012742 140.37231445 207.22241211 C140.4284812 210.79680168 140.47827572 214.37125254 140.52671719 217.94575405 C140.56570438 220.75200838 140.60874938 223.55818977 140.65294075 226.36436653 C140.68274825 228.31574242 140.70855143 230.26717818 140.73423767 232.21861267 C140.83027052 237.91922081 141.14870731 243.35756497 142 249 C142.17242 252.39475248 142.20825356 255.78890985 142.24609375 259.1875 C142.27778286 261.24707358 142.30969376 263.30664376 142.34179688 265.36621094 C142.35718506 266.44737183 142.37257324 267.52853271 142.38842773 268.64245605 C142.66682321 287.69038519 143.16689553 306.718174 144 325.75 C144.04188446 326.7203418 144.08376892 327.69068359 144.12692261 328.69042969 C144.52025578 337.71871969 144.94833196 346.74546945 145.5 355.765625 C145.5721875 356.95446289 145.644375 358.14330078 145.71875 359.36816406 C145.71311476 361.92243696 145.71311476 361.92243696 147 363 C147.23308303 365.7925914 147.4049094 368.56527713 147.53515625 371.36328125 C147.57813339 372.22447067 147.62111053 373.0856601 147.66539001 373.97294617 C147.75591318 375.8131492 147.84401426 377.65347266 147.92993164 379.49389648 C148.05886729 382.23526314 148.19772555 384.97598454 148.33789062 387.71679688 C148.56182178 392.22783302 148.74678667 396.73911719 148.90313721 401.25299072 C148.96882307 403.11582863 149.04143461 404.9784328 149.12030029 406.84075928 C149.23061687 409.59559123 149.30555477 412.34924938 149.37109375 415.10546875 C149.42862572 416.36016716 149.42862572 416.36016716 149.48731995 417.64021301 C149.57014034 423.39416247 149.57014034 423.39416247 146.66821289 426.4777832 C142.34154105 428.94615167 138.99574038 430 134 430 C134 430.66 134 431.32 134 432 C116.08391549 434.92449557 98.26803128 435.15294646 80.16015625 435.1328125 C77.98229461 435.13348874 75.80443304 435.13446141 73.62657166 435.13571167 C69.08233922 435.13717641 64.53812659 435.13507569 59.99389648 435.13037109 C54.24869455 435.12470462 48.50353922 435.12803682 42.75833893 435.13380718 C-17.33243817 435.18525165 -17.33243817 435.18525165 -43 432 C-43 431.34 -43 430.68 -43 430 C-43.66386719 429.95101563 -44.32773438 429.90203125 -45.01171875 429.8515625 C-53.78207381 429.10896309 -53.78207381 429.10896309 -58 427 C-58 426.34 -58 425.68 -58 425 C-58.7425 424.9175 -59.485 424.835 -60.25 424.75 C-63.78618602 423.78558563 -64.84521433 422.99124256 -67 420 C-67.57917959 416.70511164 -67.46621905 413.46060503 -67.375 410.125 C-67.36138428 409.13935059 -67.34776855 408.15370117 -67.33374023 407.13818359 C-67.15447941 398.28965128 -66.63440607 389.45553664 -66.0625 380.625 C-66.01929626 379.95212952 -65.97609253 379.27925903 -65.93157959 378.58599854 C-65.18131261 367.18131261 -65.18131261 367.18131261 -64 366 C-63.77004547 363.45497698 -63.60477301 360.9338232 -63.48242188 358.3828125 C-63.42066395 357.18158249 -63.42066395 357.18158249 -63.35765839 355.95608521 C-62.8999631 346.64478155 -62.63012329 337.32730991 -62.36924744 328.00878906 C-62.27907226 324.79744577 -62.18545411 321.58621844 -62.09094238 318.375 C-61.82318598 309.26088043 -61.56068238 300.14661505 -61.30224609 291.03222656 C-61.14294143 285.42226364 -60.97912999 279.81244719 -60.81248474 274.20269775 C-60.75012504 272.07201187 -60.68954015 269.94127328 -60.63075256 267.81048584 C-60.54907929 264.85268315 -60.46172251 261.8950998 -60.37304688 258.9375 C-60.35016098 258.05659698 -60.32727509 257.17569397 -60.30369568 256.26809692 C-60.11395539 250.22791077 -60.11395539 250.22791077 -59 248 C-58.90110415 245.31283176 -58.8601594 242.65214859 -58.8671875 239.96484375 C-58.86575241 238.77405968 -58.86575241 238.77405968 -58.86428833 237.55921936 C-58.86360749 235.88054322 -58.8654551 234.20186445 -58.86962891 232.52319336 C-58.87498559 229.94443903 -58.86967708 227.36585832 -58.86328125 224.78710938 C-58.86394191 223.15885378 -58.86522282 221.53059829 -58.8671875 219.90234375 C-58.86415115 218.73831276 -58.86415115 218.73831276 -58.86105347 217.55076599 C-58.54394011 213.97991173 -58.54394011 213.97991173 -60 211 C-60.13559541 208.98857269 -60.20395232 206.97258329 -60.24609375 204.95703125 C-60.27775635 203.66861328 -60.30941895 202.38019531 -60.34204102 201.05273438 C-60.35743927 200.36139404 -60.37283752 199.67005371 -60.38870239 198.95776367 C-60.76843047 182.26397709 -61.75663824 165.65055043 -63 149 C-63.66 149 -64.32 149 -65 149 C-65.04125 150.0725 -65.0825 151.145 -65.125 152.25 C-65.94896578 158.92531695 -69.18365429 166.08328138 -73.86328125 170.9296875 C-76.82901959 172.41526758 -78.25816325 171.81215773 -81.375 170.8125 C-82.33792969 170.5134375 -83.30085938 170.214375 -84.29296875 169.90625 C-85.18628906 169.6071875 -86.07960937 169.308125 -87 169 C-88.216875 168.608125 -89.43375 168.21625 -90.6875 167.8125 C-91.450625 167.544375 -92.21375 167.27625 -93 167 C-93 166.34 -93 165.68 -93 165 C-94.52560547 164.8453125 -94.52560547 164.8453125 -96.08203125 164.6875 C-100.09579001 163.98319138 -103.0447711 162.79334346 -106.6875 161 C-111.67834941 158.52946102 -111.67834941 158.52946102 -117 157 C-117 156.34 -117 155.68 -117 155 C-117.98033203 154.86271484 -117.98033203 154.86271484 -118.98046875 154.72265625 C-122.98990219 153.76308939 -126.56386353 152.12924389 -130.3125 150.4375 C-131.05306641 150.10814453 -131.79363281 149.77878906 -132.55664062 149.43945312 C-134.37311562 148.63082877 -136.18683931 147.81602884 -138 147 C-138 146.34 -138 145.68 -138 145 C-140.31 144.67 -142.62 144.34 -145 144 C-146.125 139.25 -146.125 139.25 -145 137 C-144.34 137 -143.68 137 -143 137 C-142.87625 136.278125 -142.7525 135.55625 -142.625 134.8125 C-142.0095069 132.04278106 -141.11555626 129.6029646 -140 127 C-139.34 127 -138.68 127 -138 127 C-137.01 124.03 -136.02 121.06 -135 118 C-134.34 118 -133.68 118 -133 118 C-132.87625 117.113125 -132.7525 116.22625 -132.625 115.3125 C-132.05587264 112.29612498 -131.23385564 109.79673946 -130 107 C-129.34 107 -128.68 107 -128 107 C-127.90203125 106.33097656 -127.8040625 105.66195312 -127.703125 104.97265625 C-126.8227375 101.25057354 -125.32331241 97.90517512 -123.75 94.4375 C-123.11761896 93.01991931 -122.48611738 91.60194599 -121.85546875 90.18359375 C-121.54270996 89.48218262 -121.22995117 88.78077148 -120.90771484 88.05810547 C-118.85632333 83.40688695 -116.93231541 78.70167068 -115 74 C-114.34 74 -113.68 74 -113 74 C-112.01 70.7 -111.02 67.4 -110 64 C-109.34 64 -108.68 64 -108 64 C-107.7525 63.13375 -107.505 62.2675 -107.25 61.375 C-105.92701765 57.80294764 -104.13669124 55.13826526 -102 52 C-101.28426473 50.35380887 -100.5974304 48.69271945 -100 47 C-99.34 47 -98.68 47 -98 47 C-97.690625 46.05125 -97.38125 45.1025 -97.0625 44.125 C-96 41 -96 41 -95 39 C-94.34 39 -93.68 39 -93 39 C-92.731875 38.030625 -92.46375 37.06125 -92.1875 36.0625 C-91.5996875 34.5465625 -91.5996875 34.5465625 -91 33 C-90.01 32.67 -89.02 32.34 -88 32 C-88 31.34 -88 30.68 -88 30 C-78.28156394 23.04825384 -66.93829742 18.41205509 -55.19140625 16.39453125 C-52.76910866 15.99793936 -52.76910866 15.99793936 -49.5625 15 C-43.46858533 13.28942746 -37.33914769 12 -31 12 C-31 11.34 -31 10.68 -31 10 C-30.32195312 9.76925781 -29.64390625 9.53851563 -28.9453125 9.30078125 C-1.56207281 -0.29473072 -1.56207281 -0.29473072 0 0 Z " fill="#282828" transform="translate(189,19)"/>
<path d="M0 0 C0 0.66 0 1.32 0 2 C1.918125 2.185625 1.918125 2.185625 3.875 2.375 C5.91687815 2.58125032 7.9585023 2.79001738 10 3 C10.73395996 3.07508789 11.46791992 3.15017578 12.22412109 3.22753906 C14.67079322 3.4800796 17.11667262 3.73941471 19.5625 4 C20.37251465 4.0829834 21.1825293 4.1659668 22.01708984 4.25146484 C27.88582124 4.88582124 27.88582124 4.88582124 29 6 C30.54955559 6.09899523 32.10353673 6.13079524 33.65625 6.1328125 C35.06583984 6.13474609 35.06583984 6.13474609 36.50390625 6.13671875 C37.98697266 6.13091797 37.98697266 6.13091797 39.5 6.125 C40.48871094 6.12886719 41.47742188 6.13273437 42.49609375 6.13671875 C43.43582031 6.13542969 44.37554687 6.13414063 45.34375 6.1328125 C46.64602539 6.13112061 46.64602539 6.13112061 47.97460938 6.12939453 C49.99604154 6.2241537 49.99604154 6.2241537 51 5 C52.32917112 4.78596518 53.66777455 4.62963442 55.0078125 4.5 C56.24144531 4.37625 56.24144531 4.37625 57.5 4.25 C58.36625 4.1675 59.2325 4.085 60.125 4 C65.77252845 3.44733667 71.38895335 2.85154095 77 2 C77 1.34 77 0.68 77 0 C82.95703125 -1.07421875 82.95703125 -1.07421875 85 -1 C86.03240616 -0.0334921 87.03013072 0.97075097 88 2 C90.2603044 2.99373439 90.2603044 2.99373439 92.6875 3.6875 C93.49574219 3.93886719 94.30398438 4.19023437 95.13671875 4.44921875 C95.75160156 4.63097656 96.36648438 4.81273437 97 5 C97 5.66 97 6.32 97 7 C102.94 8.485 102.94 8.485 109 10 C109 10.66 109 11.32 109 12 C109.99966797 12.07347656 109.99966797 12.07347656 111.01953125 12.1484375 C127.15538173 13.45735964 140.63856292 17.63516047 155 25 C155 25.66 155 26.32 155 27 C155.8353125 27.0928125 155.8353125 27.0928125 156.6875 27.1875 C160.027159 28.3608937 161.71500747 30.34446814 164 33 C164.8125 35.3125 164.8125 35.3125 165 37 C165.66 37 166.32 37 167 37 C173.51936219 48.52164009 173.51936219 48.52164009 175 54 C175.66 54 176.32 54 177 54 C180 59.625 180 59.625 180 63 C180.66 63 181.32 63 182 63 C183.34277732 65.7663534 184.67255228 68.53876211 186 71.3125 C186.3815625 72.09818359 186.763125 72.88386719 187.15625 73.69335938 C187.5171875 74.45068359 187.878125 75.20800781 188.25 75.98828125 C188.58515625 76.68477783 188.9203125 77.38127441 189.265625 78.09887695 C190 80 190 80 190 83 C190.66 83 191.32 83 192 83 C193.33912585 86.12254943 194.67030658 89.24842358 196 92.375 C196.3815625 93.26445313 196.763125 94.15390625 197.15625 95.0703125 C197.5171875 95.92109375 197.878125 96.771875 198.25 97.6484375 C198.58515625 98.43395996 198.9203125 99.21948242 199.265625 100.02880859 C200 102 200 102 200 104 C200.66 104 201.32 104 202 104 C202.99 107.3 203.98 110.6 205 114 C205.66 114 206.32 114 207 114 C207.27263672 114.81404297 207.27263672 114.81404297 207.55078125 115.64453125 C207.80214844 116.35996094 208.05351562 117.07539063 208.3125 117.8125 C208.55613281 118.52019531 208.79976563 119.22789062 209.05078125 119.95703125 C209.8865937 122.06182881 209.8865937 122.06182881 211.53125 123.53125 C213.890714 125.890714 214.22319617 128.83303054 215 132 C215.66 132 216.32 132 217 132 C220 138.5 220 138.5 220 143 C218.10807525 143.98669759 216.21128022 144.9640602 214.3125 145.9375 C213.25675781 146.48277344 212.20101563 147.02804688 211.11328125 147.58984375 C208.33765953 148.8470576 205.99727874 149.56069569 203 150 C203 150.66 203 151.32 203 152 C199.7 152.99 196.4 153.98 193 155 C193 155.66 193 156.32 193 157 C192.38253906 157.24234375 191.76507813 157.4846875 191.12890625 157.734375 C180.97464918 161.60461628 180.97464918 161.60461628 171.375 166.625 C167.05637208 169.12525827 162.9545483 170 158 170 C158 170.66 158 171.32 158 172 C154 172 154 172 151.375 169.8125 C148.34807675 166.22798562 147 163.69870667 147 159 C146.34 159 145.68 159 145 159 C144.49632243 157.54293274 143.99717444 156.08429904 143.5 154.625 C143.08234375 153.40683594 143.08234375 153.40683594 142.65625 152.1640625 C142 150 142 150 142 148 C141.34 148 140.68 148 140 148 C140.00785522 149.0058313 140.00785522 149.0058313 140.01586914 150.03198242 C140.03671605 153.083812 140.04968469 156.13562656 140.0625 159.1875 C140.07087891 160.24259766 140.07925781 161.29769531 140.08789062 162.38476562 C140.09272461 163.91713867 140.09272461 163.91713867 140.09765625 165.48046875 C140.10551147 166.88655396 140.10551147 166.88655396 140.11352539 168.32104492 C140.00069305 170.9836455 139.54987938 173.3978141 139 176 C114.18301729 175.89280577 89.36606524 175.78005241 64.54913807 175.66066074 C53.02650275 175.60535649 41.50386433 175.55187906 29.98120117 175.50268555 C19.93936062 175.45980947 9.89754261 175.4135228 -0.14426309 175.36312145 C-5.46247764 175.33654814 -10.7806878 175.31169571 -16.09892845 175.29092598 C-21.10324129 175.27132841 -26.10751135 175.24717523 -31.11178589 175.21950912 C-32.94960566 175.21015523 -34.78743481 175.202474 -36.62526894 175.19658089 C-39.13276912 175.18829146 -41.64016623 175.17400684 -44.14762878 175.15821838 C-44.8762357 175.15724028 -45.60484262 175.15626217 -46.35552853 175.15525442 C-50.11699929 175.12476064 -53.26525777 174.74694845 -57 174 C-57.33 156.51 -57.66 139.02 -58 121 C-63.44918207 126.44918207 -63.03642836 129.98803451 -63.0625 137.375 C-63.04653244 139.25004775 -63.02730462 141.12508307 -63 143 C-62.34 143.33 -61.68 143.66 -61 144 C-61.66 145.65 -62.32 147.3 -63 149 C-63.66 149 -64.32 149 -65 149 C-65.04125 150.0725 -65.0825 151.145 -65.125 152.25 C-65.94896578 158.92531695 -69.18365429 166.08328138 -73.86328125 170.9296875 C-76.82901959 172.41526758 -78.25816325 171.81215773 -81.375 170.8125 C-82.33792969 170.5134375 -83.30085938 170.214375 -84.29296875 169.90625 C-85.18628906 169.6071875 -86.07960937 169.308125 -87 169 C-88.216875 168.608125 -89.43375 168.21625 -90.6875 167.8125 C-91.450625 167.544375 -92.21375 167.27625 -93 167 C-93 166.34 -93 165.68 -93 165 C-94.52560547 164.8453125 -94.52560547 164.8453125 -96.08203125 164.6875 C-100.09579001 163.98319138 -103.0447711 162.79334346 -106.6875 161 C-111.67834941 158.52946102 -111.67834941 158.52946102 -117 157 C-117 156.34 -117 155.68 -117 155 C-117.98033203 154.86271484 -117.98033203 154.86271484 -118.98046875 154.72265625 C-122.98990219 153.76308939 -126.56386353 152.12924389 -130.3125 150.4375 C-131.05306641 150.10814453 -131.79363281 149.77878906 -132.55664062 149.43945312 C-134.37311562 148.63082877 -136.18683931 147.81602884 -138 147 C-138 146.34 -138 145.68 -138 145 C-140.31 144.67 -142.62 144.34 -145 144 C-146.125 139.25 -146.125 139.25 -145 137 C-144.34 137 -143.68 137 -143 137 C-142.87625 136.278125 -142.7525 135.55625 -142.625 134.8125 C-142.0095069 132.04278106 -141.11555626 129.6029646 -140 127 C-139.34 127 -138.68 127 -138 127 C-137.01 124.03 -136.02 121.06 -135 118 C-134.34 118 -133.68 118 -133 118 C-132.87625 117.113125 -132.7525 116.22625 -132.625 115.3125 C-132.05587264 112.29612498 -131.23385564 109.79673946 -130 107 C-129.34 107 -128.68 107 -128 107 C-127.90203125 106.33097656 -127.8040625 105.66195312 -127.703125 104.97265625 C-126.8227375 101.25057354 -125.32331241 97.90517512 -123.75 94.4375 C-123.11761896 93.01991931 -122.48611738 91.60194599 -121.85546875 90.18359375 C-121.54270996 89.48218262 -121.22995117 88.78077148 -120.90771484 88.05810547 C-118.85632333 83.40688695 -116.93231541 78.70167068 -115 74 C-114.34 74 -113.68 74 -113 74 C-112.01 70.7 -111.02 67.4 -110 64 C-109.34 64 -108.68 64 -108 64 C-107.7525 63.13375 -107.505 62.2675 -107.25 61.375 C-105.92701765 57.80294764 -104.13669124 55.13826526 -102 52 C-101.28426473 50.35380887 -100.5974304 48.69271945 -100 47 C-99.34 47 -98.68 47 -98 47 C-97.690625 46.05125 -97.38125 45.1025 -97.0625 44.125 C-96 41 -96 41 -95 39 C-94.34 39 -93.68 39 -93 39 C-92.731875 38.030625 -92.46375 37.06125 -92.1875 36.0625 C-91.5996875 34.5465625 -91.5996875 34.5465625 -91 33 C-90.01 32.67 -89.02 32.34 -88 32 C-88 31.34 -88 30.68 -88 30 C-78.28156394 23.04825384 -66.93829742 18.41205509 -55.19140625 16.39453125 C-52.76910866 15.99793936 -52.76910866 15.99793936 -49.5625 15 C-43.46858533 13.28942746 -37.33914769 12 -31 12 C-31 11.34 -31 10.68 -31 10 C-30.32195312 9.76925781 -29.64390625 9.53851563 -28.9453125 9.30078125 C-1.56207281 -0.29473072 -1.56207281 -0.29473072 0 0 Z " fill="#292929" transform="translate(189,19)"/>
<path d="M0 0 C63.03 0 126.06 0 191 0 C191 20.13 191 40.26 191 61 C189.29888291 62.70111709 187.16733433 62.12227496 184.89802688 62.12908131 C184.16165955 62.12616847 183.42529221 62.12325563 182.66661072 62.12025452 C181.88988134 62.12110894 181.11315197 62.12196337 180.31288534 62.12284368 C177.69025678 62.12450084 175.0676911 62.11897329 172.44506836 62.11352539 C170.57302349 62.11324354 168.70097852 62.1134012 166.82893372 62.1139679 C161.7299724 62.11425597 156.63103438 62.10835769 151.5320785 62.10139394 C146.20958367 62.09516199 140.88708837 62.09455673 135.56459045 62.09336853 C125.47815109 62.09025474 115.39172251 62.08204072 105.3052879 62.07201904 C93.82543621 62.06085937 82.34558402 62.05534782 70.86572826 62.05032361 C47.24381148 62.03985814 23.62190948 62.02151207 0 62 C0 41.54 0 21.08 0 0 Z " fill="#FC0202" transform="translate(134,130)"/>
<path d="M0 0 C63.03 0 126.06 0 191 0 C191 20.13 191 40.26 191 61 C189.29888291 62.70111709 187.16733433 62.12227496 184.89802688 62.12908131 C184.16165955 62.12616847 183.42529221 62.12325563 182.66661072 62.12025452 C181.88988134 62.12110894 181.11315197 62.12196337 180.31288534 62.12284368 C177.69025678 62.12450084 175.0676911 62.11897329 172.44506836 62.11352539 C170.57302349 62.11324354 168.70097852 62.1134012 166.82893372 62.1139679 C161.7299724 62.11425597 156.63103438 62.10835769 151.5320785 62.10139394 C146.20958367 62.09516199 140.88708837 62.09455673 135.56459045 62.09336853 C125.47815109 62.09025474 115.39172251 62.08204072 105.3052879 62.07201904 C93.82543621 62.06085937 82.34558402 62.05534782 70.86572826 62.05032361 C47.24381148 62.03985814 23.62190948 62.02151207 0 62 C0 41.54 0 21.08 0 0 Z M103.9375 2.18359375 C103.23110634 2.18845582 102.52471268 2.19331789 101.79691315 2.1983273 C95.11716511 2.2443328 88.43742174 2.29096103 81.75769043 2.33933926 C73.28680999 2.4006584 64.81592081 2.45854804 56.34498692 2.51199192 C50.33684737 2.55017023 44.32874121 2.59210372 38.32064724 2.63687855 C34.74786354 2.66340486 31.17508636 2.68826529 27.6022644 2.70907402 C23.64885862 2.73219163 19.69553491 2.76305752 15.7421875 2.79467773 C13.96907448 2.80331093 13.96907448 2.80331093 12.16014099 2.81211853 C10.55889122 2.82680176 10.55889122 2.82680176 8.92529297 2.84178162 C7.99264618 2.84823417 7.05999939 2.85468672 6.09909058 2.8613348 C4.01272973 2.76761717 4.01272973 2.76761717 3 4 C2.90131896 5.64661683 2.87201167 7.29745094 2.87060547 8.94702148 C2.86745331 10.00159042 2.86430115 11.05615936 2.86105347 12.14268494 C2.8630777 13.29055984 2.86510193 14.43843475 2.8671875 15.62109375 C2.86623077 16.79132584 2.86527405 17.96155792 2.86428833 19.16725159 C2.86360625 21.64804132 2.86546248 24.12883282 2.86962891 26.60961914 C2.87497197 30.41752111 2.86968729 34.22530487 2.86328125 38.03320312 C2.86394212 40.43750026 2.86522347 42.84179732 2.8671875 45.24609375 C2.86516327 46.39194443 2.86313904 47.5377951 2.86105347 48.71836853 C2.86420563 49.77608963 2.86735779 50.83381073 2.87060547 51.92358398 C2.87140106 52.85766586 2.87219666 53.79174774 2.87301636 54.75413513 C2.85337377 57.03675522 2.85337377 57.03675522 4 59 C65.05 59 126.1 59 189 59 C189 40.85 189 22.7 189 4 C187.28502984 2.28502984 185.00238315 2.76885658 182.65625 2.68359375 C180.93535156 2.62075195 180.93535156 2.62075195 179.1796875 2.55664062 C177.96539062 2.51732422 176.75109375 2.47800781 175.5 2.4375 C174.37851562 2.39431641 173.25703125 2.35113281 172.1015625 2.30664062 C164.3685421 2.04013062 156.64508808 1.97049473 148.90820312 1.97705078 C147.28559319 1.97785944 147.28559319 1.97785944 145.63020325 1.97868443 C131.7323731 1.99346989 117.8349563 2.08735907 103.9375 2.18359375 Z " fill="#E30B0D" transform="translate(134,130)"/>
<path d="M0 0 C63.36 0 126.72 0 192 0 C192 0.66 192 1.32 192 2 C192.66 2 193.32 2 194 2 C194 23.45 194 44.9 194 67 C169.18301883 66.89204122 144.36606663 66.78005242 119.54913807 66.66066074 C108.02650275 66.60535649 96.50386433 66.55187906 84.98120117 66.50268555 C74.93936062 66.45980947 64.89754261 66.4135228 54.85573691 66.36312145 C49.53752236 66.33654814 44.2193122 66.31169571 38.90107155 66.29092598 C33.89675871 66.27132841 28.89248865 66.24717523 23.88821411 66.21950912 C22.05039434 66.21015523 20.21256519 66.202474 18.37473106 66.19658089 C15.86723088 66.18829146 13.35983377 66.17400684 10.85237122 66.15821838 C9.75946084 66.15675122 9.75946084 66.15675122 8.64447147 66.15525442 C4.88300071 66.12476064 1.73474223 65.74694845 -2 65 C-2 44.21 -2 23.42 -2 2 C-1.34 2 -0.68 2 0 2 C0 1.34 0 0.68 0 0 Z M0 2 C0 22.46 0 42.92 0 64 C24.75565327 64.02254455 49.51129827 64.04097773 74.26695919 64.05181217 C85.76057743 64.05697575 97.25418886 64.06401963 108.74780273 64.07543945 C118.76175187 64.08538439 128.77569608 64.09185297 138.78965002 64.09408849 C144.09545443 64.09539593 149.40124471 64.09848381 154.7070446 64.10573006 C159.69490771 64.11248728 164.68275081 64.11461757 169.67061806 64.11310768 C171.50690189 64.11338414 173.34318635 64.11539102 175.17946625 64.11920547 C177.67520616 64.12413808 180.17086924 64.1229999 182.66661072 64.12025452 C183.40297805 64.12316736 184.13934539 64.1260802 184.89802688 64.12908131 C188.23310862 64.41169603 188.23310862 64.41169603 191 63 C191 42.87 191 22.74 191 2 C127.97 2 64.94 2 0 2 Z " fill="#661515" transform="translate(134,128)"/>
<path d="M0 0 C3 2 3 2 5 4 C5 3.34 5 2.68 5 2 C7.10094974 1.72426908 9.20607635 1.48021024 11.3125 1.25 C12.48425781 1.11078125 13.65601563 0.9715625 14.86328125 0.828125 C18 1 18 1 19.875 2.77734375 C21.62613539 6.23705222 21.71441645 8.16812994 21 12 C18.11130933 16.01207037 14.85442741 18.64736307 9.95336914 19.5793457 C6.50637675 19.72422849 3.13351351 19.66090335 -0.3125 19.5 C-1.49134766 19.47679687 -2.67019531 19.45359375 -3.88476562 19.4296875 C-12.34980867 19.21673044 -12.34980867 19.21673044 -16 18 C-16 17.34 -16 16.68 -16 16 C-16.99 16 -17.98 16 -19 16 C-19.34833144 11.12335991 -18.41685712 8.22949995 -16 4 C-15.34 4 -14.68 4 -14 4 C-14 3.34 -14 2.68 -14 2 C-9.03312696 0.01325078 -5.2749095 -0.50237233 0 0 Z " fill="#C4362C" transform="translate(262,147)"/>
<path d="M0 0 C6.6 0 13.2 0 20 0 C20.86988854 4.34944269 21.03595522 5.97128525 20 10 C19.43410156 10.12117187 18.86820313 10.24234375 18.28515625 10.3671875 C17.18494141 10.61855469 17.18494141 10.61855469 16.0625 10.875 C14.96615234 11.11863281 14.96615234 11.11863281 13.84765625 11.3671875 C11.79299706 11.82961523 11.79299706 11.82961523 11 14 C12.32 14 13.64 14 15 14 C15 15.32 15 16.64 15 18 C14.09636719 17.98839844 13.19273437 17.97679687 12.26171875 17.96484375 C10.49248047 17.95130859 10.49248047 17.95130859 8.6875 17.9375 C7.51574219 17.92589844 6.34398437 17.91429687 5.13671875 17.90234375 C1.96940805 17.85100102 1.96940805 17.85100102 -1 19 C-3.31 19 -5.62 19 -8 19 C-8 13.06 -8 7.12 -8 1 C-2 1 -2 1 0 2 C0 1.34 0 0.68 0 0 Z " fill="#D94D4E" transform="translate(220,148)"/>
<path d="M0 0 C63.03 0 126.06 0 191 0 C190.67 0.66 190.34 1.32 190 2 C189.03717385 1.99907821 188.07434771 1.99815641 187.08234501 1.99720669 C163.69039734 1.97503971 140.29845103 1.95858975 116.90649509 1.94818783 C105.59447927 1.94302426 94.28247037 1.93598042 82.97045898 1.92456055 C73.11472298 1.91461555 63.25899199 1.90814701 53.40325111 1.90591151 C48.18128364 1.90460408 42.95933052 1.90151626 37.73736763 1.89426994 C32.82829892 1.88751263 27.91925054 1.88538245 23.01017761 1.88689232 C21.20291979 1.88661586 19.39566133 1.88460903 17.58840752 1.88079453 C15.13207875 1.87586177 12.67582804 1.87700015 10.21949768 1.87974548 C9.49480319 1.87683264 8.7701087 1.8739198 8.02345377 1.87091869 C4.72955107 1.59551782 4.72955107 1.59551782 2 3 C2 21.81 2 40.62 2 60 C64.37 60 126.74 60 191 60 C190.67 60.66 190.34 61.32 190 62 C127.3 62 64.6 62 0 62 C0 41.54 0 21.08 0 0 Z " fill="#B41618" transform="translate(134,130)"/>
<path d="M0 0 C1.09898702 3.29696105 0.87124444 4.40494903 0.0625 7.6875 C-0.13214844 8.49574219 -0.32679688 9.30398437 -0.52734375 10.13671875 C-0.68332031 10.75160156 -0.83929688 11.36648437 -1 12 C-0.34 12.33 0.32 12.66 1 13 C1 14.32 1 15.64 1 17 C1.99 17 2.98 17 4 17 C3.67 16.34 3.34 15.68 3 15 C2.48321086 11.82543814 2.46238205 9.81056245 4.26953125 7.0859375 C8.25601604 2.37199198 8.25601604 2.37199198 11 1 C14.56706674 0.73577283 17.16072103 0.61264047 20.4375 2.125 C22 4 22 4 22.5625 6.6875 C21.81273459 11.10278518 20.02099134 14.66895955 17 18 C13.7791406 19.10344257 10.74300024 19.11565426 7.359375 19.09765625 C6.28945312 19.09443359 5.21953125 19.09121094 4.1171875 19.08789062 C3.00601563 19.07951172 1.89484375 19.07113281 0.75 19.0625 C-0.93996094 19.05573242 -0.93996094 19.05573242 -2.6640625 19.04882812 C-5.44276217 19.03705397 -8.22135409 19.0206084 -11 19 C-11 16.69 -11 14.38 -11 12 C-10.34 12 -9.68 12 -9 12 C-8.67 8.37 -8.34 4.74 -8 1 C-5.07175348 0.02391783 -3.04386724 -0.08226668 0 0 Z " fill="#FABEBA" transform="translate(187,148)"/>
<path d="M0 0 C0.66 0 1.32 0 2 0 C2 21.45 2 42.9 2 65 C-61.03 64.67 -124.06 64.34 -189 64 C-189 63.67 -189 63.34 -189 63 C-126.96 62.67 -64.92 62.34 -1 62 C-0.505 31.31 -0.505 31.31 0 0 Z " fill="#4C1615" transform="translate(326,130)"/>
<path d="M0 0 C1.90932427 3.28828069 1.80944086 5.20418622 1.125 8.9375 C-2.16623336 13.21776561 -5.31300068 15.70704108 -10.6875 16.5 C-13.875 15.9375 -13.875 15.9375 -16.875 13.9375 C-17.40222983 9.3430686 -17.53573384 7.06319469 -15.1875 3.0625 C-11.01894208 -0.76806674 -5.3301129 -3.02039731 0 0 Z " fill="#FBB9B7" transform="translate(281.875,150.0625)"/>
<path d="M0 0 C0.33 0 0.66 0 1 0 C1 20.13 1 40.26 1 61 C0.67 61 0.34 61 0 61 C-0.33 54.73 -0.66 48.46 -1 42 C-1.99 41.67 -2.98 41.34 -4 41 C-4 38.36 -4 35.72 -4 33 C-4.66 33 -5.32 33 -6 33 C-6.38505534 18.7743445 -6.38505534 18.7743445 -4 13 C-3.4946875 12.55269531 -2.989375 12.10539063 -2.46875 11.64453125 C-0.47543697 9.41265682 -0.50408395 7.76289278 -0.3125 4.8125 C-0.24675781 3.91144531 -0.18101562 3.01039063 -0.11328125 2.08203125 C-0.07589844 1.39496094 -0.03851563 0.70789063 0 0 Z " fill="#281616" transform="translate(131,130)"/>
<path d="M0 0 C1.09898702 3.29696105 0.87124444 4.40494903 0.0625 7.6875 C-0.13214844 8.49574219 -0.32679688 9.30398437 -0.52734375 10.13671875 C-0.68332031 10.75160156 -0.83929688 11.36648437 -1 12 C-0.34 12.33 0.32 12.66 1 13 C1 14.32 1 15.64 1 17 C1.97582031 16.9278125 2.95164063 16.855625 3.95703125 16.78125 C5.22933594 16.6884375 6.50164062 16.595625 7.8125 16.5 C9.07707031 16.4071875 10.34164062 16.314375 11.64453125 16.21875 C13.75978517 16.08085219 15.88025592 16 18 16 C17 18 17 18 15.29003906 18.61889648 C12.60836094 19.06517575 10.07860527 19.11212024 7.359375 19.09765625 C6.28945312 19.09443359 5.21953125 19.09121094 4.1171875 19.08789062 C3.00601563 19.07951172 1.89484375 19.07113281 0.75 19.0625 C-0.93996094 19.05573242 -0.93996094 19.05573242 -2.6640625 19.04882812 C-5.44276217 19.03705397 -8.22135409 19.0206084 -11 19 C-11 16.69 -11 14.38 -11 12 C-10.34 12 -9.68 12 -9 12 C-8.67 8.37 -8.34 4.74 -8 1 C-5.07175348 0.02391783 -3.04386724 -0.08226668 0 0 Z " fill="#E43636" transform="translate(187,148)"/>
<path d="M0 0 C0 1.32 0 2.64 0 4 C-1.9375 4.5625 -1.9375 4.5625 -4 5 C-4.33 4.67 -4.66 4.34 -5 4 C-7.45809998 3.7499227 -7.45809998 3.7499227 -10 4 C-12.28728734 5.83883881 -12.28728734 5.83883881 -12.125 8.625 C-12.08375 9.40875 -12.0425 10.1925 -12 11 C-11.01 10.67 -10.02 10.34 -9 10 C-8.26676204 7.98491642 -8.26676204 7.98491642 -8 6 C-5.69 6 -3.38 6 -1 6 C-1.47951796 10.31566167 -2.70235018 12.2019941 -6 15 C-8.52053595 16.26026798 -9.8542098 15.91874445 -12.625 15.5625 C-13.44226563 15.46066406 -14.25953125 15.35882813 -15.1015625 15.25390625 C-15.72804687 15.17011719 -16.35453125 15.08632812 -17 15 C-18.32985075 8.83432836 -18.32985075 8.83432836 -16.9375 5.3125 C-11.69672068 -0.9426237 -7.60458602 -1.55471536 0 0 Z " fill="#F8A4A5" transform="translate(263,150)"/>
<path d="M0 0 C0.04241723 2.33294775 0.04092937 4.66702567 0 7 C-0.33 7.33 -0.66 7.66 -1 8 C-1.35840222 10.32961443 -1.68848712 12.66365343 -2 15 C-2.31966139 16.66934283 -2.64731066 18.3373217 -3 20 C-4.98 20 -6.96 20 -9 20 C-9 19.01 -9 18.02 -9 17 C-9.66 17 -10.32 17 -11 17 C-12.4783226 14.04335481 -12.06032783 11.25770263 -12 8 C-11.34 8 -10.68 8 -10 8 C-10 5.69 -10 3.38 -10 1 C-6.78548731 -0.60725635 -3.56387464 -0.05748185 0 0 Z " fill="#EF090D" transform="translate(173,150)"/>
<path d="M0 0 C0.99 0.66 1.98 1.32 3 2 C3 2.66 3 3.32 3 4 C3.99 3.67 4.98 3.34 6 3 C6 7.95 6 12.9 6 18 C5.67 16.68 5.34 15.36 5 14 C2.82482479 14.80730727 2.82482479 14.80730727 2.25 16.9375 C1 19 1 19 -1.5625 20.25 C-5.77642156 21.16940107 -9.70790719 21.17168371 -14 21 C-14 20.67 -14 20.34 -14 20 C-13.15695313 19.97421875 -12.31390625 19.9484375 -11.4453125 19.921875 C-10.34960938 19.86515625 -9.25390625 19.8084375 -8.125 19.75 C-7.03445312 19.70359375 -5.94390625 19.6571875 -4.8203125 19.609375 C-1.89027461 19.31549326 -1.89027461 19.31549326 -0.6875 17.0703125 C-0.3471875 16.04550781 -0.3471875 16.04550781 0 15 C0.37125 14.38125 0.7425 13.7625 1.125 13.125 C2.30406219 10.26156325 2.33296908 8.06331554 2 5 C-1.76875875 2.48749417 -3.53150134 2.46983914 -8 3 C-10.97361628 4.78152067 -13.42653612 6.85307225 -15 10 C-15.0689472 11.37342831 -15.08467708 12.75002102 -15.0625 14.125 C-15.041875 15.40375 -15.02125 16.6825 -15 18 C-15.99 18 -16.98 18 -18 18 C-18 16.68 -18 15.36 -18 14 C-18.99 13.67 -19.98 13.34 -21 13 C-20.34 10.03 -19.68 7.06 -19 4 C-17.66666667 4 -16.33333333 4 -15 4 C-14.21625 3.525625 -13.4325 3.05125 -12.625 2.5625 C-8.2984298 -0.0128394 -4.98203282 -0.26689462 0 0 Z " fill="#DC1D1B" transform="translate(206,147)"/>
<path d="M0 0 C1.98 0 3.96 0 6 0 C6 4.95 6 9.9 6 15 C1.94726562 14.56054688 1.94726562 14.56054688 -2.10546875 14.12109375 C-4.94233377 14.00241249 -7.25423671 14.32234361 -10 15 C-8.38132359 11.5314077 -6.40686103 8.41005221 -4.25 5.25 C-3.26773437 3.77273437 -3.26773437 3.77273437 -2.265625 2.265625 C-1.51796875 1.51796875 -0.7703125 0.7703125 0 0 Z " fill="#FBD3CF" transform="translate(292,150)"/>
<path d="M0 0 C0.33 0 0.66 0 1 0 C-0.16935484 26.16935484 -0.16935484 26.16935484 -4 30 C-4.23363881 31.84891946 -4.41303635 33.70488031 -4.5625 35.5625 C-4.64628906 36.57441406 -4.73007812 37.58632812 -4.81640625 38.62890625 C-4.90728516 39.80259766 -4.90728516 39.80259766 -5 41 C-5.66 41 -6.32 41 -7 41 C-7 30.77 -7 20.54 -7 10 C-6.67 10 -6.34 10 -6 10 C-5.67 12.31 -5.34 14.62 -5 17 C-4.67 17 -4.34 17 -4 17 C-2.68809064 13.06427191 -1.87832178 9.84737403 -2 5.6875 C-2 2 -2 2 0 0 Z " fill="#1E1817" transform="translate(335,120)"/>
<path d="M0 0 C2.97 0 5.94 0 9 0 C9 0.99 9 1.98 9 3 C7.35 3 5.7 3 4 3 C4 3.66 4 4.32 4 5 C4.99 5 5.98 5 7 5 C7 6.32 7 7.64 7 9 C6.195625 9.12375 5.39125 9.2475 4.5625 9.375 C3.716875 9.58125 2.87125 9.7875 2 10 C1.67 10.66 1.34 11.32 1 12 C2.32 12 3.64 12 5 12 C5 12.99 5 13.98 5 15 C2.03 15 -0.94 15 -4 15 C-3.43179252 9.54520815 -2.05362055 5.08940744 0 0 Z " fill="#FACBC9" transform="translate(230,150)"/>
<path d="M0 0 C1.32 0 2.64 0 4 0 C4 2.64 4 5.28 4 8 C4.66 8 5.32 8 6 8 C6.268125 7.236875 6.53625 6.47375 6.8125 5.6875 C7.96131822 3.08754297 8.67278944 1.61114577 11 0 C13.1015625 0.4296875 13.1015625 0.4296875 15 1 C13.01940299 3.68163307 11.01392718 6.3433301 9 9 C8.54753906 9.61617187 8.09507812 10.23234375 7.62890625 10.8671875 C6.375 12.5 6.375 12.5 4 15 C2.68 15 1.36 15 0 15 C0 10.05 0 5.1 0 0 Z " fill="#FCCBC9" transform="translate(213,150)"/>
<path d="M0 0 C3 2 3 2 5 4 C5 3.34 5 2.68 5 2 C11.435 1.505 11.435 1.505 18 1 C18 1.33 18 1.66 18 2 C17.39671875 2.10957031 16.7934375 2.21914062 16.171875 2.33203125 C11.67465023 3.22422262 8.56350139 3.9847296 5 7 C4.01 7 3.02 7 2 7 C1.67 6.01 1.34 5.02 1 4 C-3.61890022 3.05569151 -6.92982096 2.56400113 -11.375 4.375 C-14.84755927 7.84755927 -15.85605345 11.30379839 -17 16 C-17.66 16 -18.32 16 -19 16 C-19.34833144 11.12335991 -18.41685712 8.22949995 -16 4 C-15.34 4 -14.68 4 -14 4 C-14 3.34 -14 2.68 -14 2 C-9.03312696 0.01325078 -5.2749095 -0.50237233 0 0 Z " fill="#DF1C1C" transform="translate(262,147)"/>
<path d="M0 0 C0.79921875 0.11085937 1.5984375 0.22171875 2.421875 0.3359375 C3.32679688 0.47902344 3.32679688 0.47902344 4.25 0.625 C4.25 1.945 4.25 3.265 4.25 4.625 C2.3125 5.1875 2.3125 5.1875 0.25 5.625 C-0.08 5.295 -0.41 4.965 -0.75 4.625 C-3.20809998 4.3749227 -3.20809998 4.3749227 -5.75 4.625 C-8.51223278 7.38723278 -8.32856291 9.83206617 -8.75 13.625 C-6.77 13.625 -4.79 13.625 -2.75 13.625 C-2.75 13.955 -2.75 14.285 -2.75 14.625 C-9.5 14.75 -9.5 14.75 -11.75 13.625 C-12.04254918 8.65166392 -11.91504232 5.5813029 -8.75 1.625 C-5.63004842 -0.37203797 -3.62896568 -0.53367142 0 0 Z " fill="#F9BABC" transform="translate(258.75,149.375)"/>
<path d="M0 0 C1.32 0 2.64 0 4 0 C3.34 3.96 2.68 7.92 2 12 C2.99 12 3.98 12 5 12 C5 12.99 5 13.98 5 15 C2.03 15 -0.94 15 -4 15 C-3.43179252 9.54520815 -2.05362055 5.08940744 0 0 Z " fill="#F5B1AE" transform="translate(182,150)"/>
<path d="M0 0 C0.99 0 1.98 0 3 0 C3 2.64 3 5.28 3 8 C5.97 8 8.94 8 12 8 C12 8.33 12 8.66 12 9 C11.09636719 8.98839844 10.19273437 8.97679687 9.26171875 8.96484375 C7.49248047 8.95130859 7.49248047 8.95130859 5.6875 8.9375 C4.51574219 8.92589844 3.34398437 8.91429687 2.13671875 8.90234375 C-1.03059195 8.85100102 -1.03059195 8.85100102 -4 10 C-6.33299825 10.03954234 -8.66708189 10.04401732 -11 10 C-11 9.34 -11 8.68 -11 8 C-9.6696875 7.690625 -9.6696875 7.690625 -8.3125 7.375 C-5.07492337 6.03110027 -4.33389059 5.4880171 -2.3125 2.875 C-1.549375 1.92625 -0.78625 0.9775 0 0 Z " fill="#E91E1F" transform="translate(223,157)"/>
<path d="M0 0 C1.32 0 2.64 0 4 0 C4.33 1.65 4.66 3.3 5 5 C5.99 5 6.98 5 8 5 C8.33 4.01 8.66 3.02 9 2 C9.66 2 10.32 2 11 2 C9.45158425 5.34708051 7.50894136 8.24667512 5.375 11.25 C4.74335938 12.14203125 4.11171875 13.0340625 3.4609375 13.953125 C2.97882813 14.62859375 2.49671875 15.3040625 2 16 C3.32 16.33 4.64 16.66 6 17 C2.37 17 -1.26 17 -5 17 C-2.66666667 14.66666667 -0.33333333 12.33333333 2 10 C2.31537716 5.66356399 2.44897847 3.67346771 0 0 Z " fill="#D92B2E" transform="translate(280,149)"/>
<path d="M0 0 C0 5.28 0 10.56 0 16 C-4 16 -4 16 -6 15 C-5.65084746 4.87457627 -5.65084746 4.87457627 -3 1.3125 C-1 0 -1 0 0 0 Z " fill="#231E1D" transform="translate(131,140)"/>
<path d="M0 0 C1.65 0 3.3 0 5 0 C4.52229477 1.93786085 4.04278429 3.87527674 3.5625 5.8125 C3.29566406 6.89144531 3.02882812 7.97039062 2.75390625 9.08203125 C2.23922588 11.0740843 1.65062825 13.04811524 1 15 C-0.65 15 -2.3 15 -4 15 C-3.52229477 13.06213915 -3.04278429 11.12472326 -2.5625 9.1875 C-2.29566406 8.10855469 -2.02882812 7.02960938 -1.75390625 5.91796875 C-1.23922588 3.9259157 -0.65062825 1.95188476 0 0 Z " fill="#FAC2C1" transform="translate(167,150)"/>
<path d="M0 0 C0.66 0 1.32 0 2 0 C1.48481088 4.43062642 0.46702882 7.29945676 -2 11 C-3.79905536 13.9504508 -5.50051527 16.88568556 -7 20 C-7.66 20 -8.32 20 -9 20 C-9.33 21.98 -9.66 23.96 -10 26 C-10.99 26.33 -11.98 26.66 -13 27 C-12.01 23.7 -11.02 20.4 -10 17 C-9.34 17 -8.68 17 -8 17 C-7.7525 16.13375 -7.505 15.2675 -7.25 14.375 C-5.92701765 10.80294764 -4.13669124 8.13826526 -2 5 C-1.28426473 3.35380887 -0.5974304 1.69271945 0 0 Z " fill="#6A6A6A" transform="translate(89,66)"/>
<path d="M0 0 C0.99 0 1.98 0 3 0 C3 1.32 3 2.64 3 4 C3.66 4 4.32 4 5 4 C5 4.66 5 5.32 5 6 C7.31 6 9.62 6 12 6 C11.34 7.32 10.68 8.64 10 10 C3.375 10.25 3.375 10.25 0 8 C-0.40843923 5.28796348 -0.13336867 2.7562858 0 0 Z " fill="#FCC5C7" transform="translate(265,156)"/>
<path d="M0 0 C0 0.66 0 1.32 0 2 C1.65 2 3.3 2 5 2 C5 2.33 5 2.66 5 3 C4.030625 3.309375 3.06125 3.61875 2.0625 3.9375 C-0.84065792 4.69523342 -0.84065792 4.69523342 -2 6 C-2.25005386 8.95817107 -2.25005386 8.95817107 -2 12 C-1.34 12.66 -0.68 13.32 0 14 C-1.98 14 -3.96 14 -6 14 C-7.56935594 10.86128812 -7.35201103 8.46144178 -7 5 C-2.95744681 0 -2.95744681 0 0 0 Z " fill="#F9C0BF" transform="translate(198,150)"/>
<path d="M0 0 C-0.33 6.6 -0.66 13.2 -1 20 C-2.98 20 -4.96 20 -7 20 C-7 19.34 -7 18.68 -7 18 C-5.68 18 -4.36 18 -3 18 C-3 13.05 -3 8.1 -3 3 C-4.65 3 -6.3 3 -8 3 C-8 2.34 -8 1.68 -8 1 C-5.23735711 0.40267181 -2.83967231 0 0 0 Z " fill="#E92125" transform="translate(301,147)"/>
<path d="M0 0 C2.4375 0.375 2.4375 0.375 4.4375 2.375 C4.4375 3.365 4.4375 4.355 4.4375 5.375 C3.7775 5.375 3.1175 5.375 2.4375 5.375 C2.1075 6.365 1.7775 7.355 1.4375 8.375 C-0.5425 8.375 -2.5225 8.375 -4.5625 8.375 C-5.25 6.625 -5.25 6.625 -5.5625 4.375 C-4.06845761 1.38691523 -3.35109018 0.49040344 0 0 Z " fill="#CD3B3C" transform="translate(274.5625,152.625)"/>
<path d="M0 0 C1 1 1 1 1.25 3.4375 C1.1675 4.283125 1.085 5.12875 1 6 C-2.4352048 8.29013653 -3.985331 8.17842973 -8 8 C-8.36075949 3.55063291 -8.36075949 3.55063291 -6.8125 1.1875 C-4.41628976 -0.38243085 -2.80951486 -0.29573841 0 0 Z " fill="#CC393B" transform="translate(203,153)"/>
<path d="M0 0 C5.28 0 10.56 0 16 0 C16.86988854 4.34944269 17.03595522 5.97128525 16 10 C15.01 10.33 14.02 10.66 13 11 C13 9.68 13 8.36 13 7 C12.01 7 11.02 7 10 7 C10 6.34 10 5.68 10 5 C11.65 5 13.3 5 15 5 C15 4.01 15 3.02 15 2 C14.00419922 2.01740234 14.00419922 2.01740234 12.98828125 2.03515625 C4.21792619 2.12478032 4.21792619 2.12478032 0 1 C0 0.67 0 0.34 0 0 Z " fill="#ED3B34" transform="translate(224,148)"/>
<path d="M0 0 C0.33 0 0.66 0 1 0 C1.14546783 3.24952748 1.2341168 6.49821713 1.3125 9.75 C1.35439453 10.67039062 1.39628906 11.59078125 1.43945312 12.5390625 C1.56336035 19.37874128 1.56336035 19.37874128 -1.39453125 22.640625 C-4 24 -4 24 -6 24 C-6 23.34 -6 22.68 -6 22 C-4.68 21.67 -3.36 21.34 -2 21 C-1.97494385 20.39937744 -1.9498877 19.79875488 -1.92407227 19.17993164 C-1.8084472 16.47388563 -1.68557064 13.76821717 -1.5625 11.0625 C-1.52318359 10.11697266 -1.48386719 9.17144531 -1.44335938 8.19726562 C-1.40146484 7.29814453 -1.35957031 6.39902344 -1.31640625 5.47265625 C-1.26141968 4.22367554 -1.26141968 4.22367554 -1.20532227 2.94946289 C-1 1 -1 1 0 0 Z " fill="#6D6D6D" transform="translate(337,423)"/>
<path d="M0 0 C-1.92710706 10.55808656 -1.92710706 10.55808656 -4 15 C-2.68 15.33 -1.36 15.66 0 16 C-1.66611905 16.042721 -3.33382885 16.04063832 -5 16 C-6 15 -6 15 -6.0625 11.4375 C-6.041875 10.303125 -6.02125 9.16875 -6 8 C-5.34 8 -4.68 8 -4 8 C-4 5.69 -4 3.38 -4 1 C-2 0 -2 0 0 0 Z " fill="#E2201D" transform="translate(167,150)"/>
<path d="M0 0 C0 4.62 0 9.24 0 14 C-1.32 13.34 -2.64 12.68 -4 12 C-4 8.37 -4 4.74 -4 1 C-1 0 -1 0 0 0 Z " fill="#403A3B" transform="translate(131,170)"/>
<path d="M0 0 C0.33 0 0.66 0 1 0 C1.33 2.31 1.66 4.62 2 7 C3.32 6.67 4.64 6.34 6 6 C5.67 5.34 5.34 4.68 5 4 C7.64 3.67 10.28 3.34 13 3 C13 3.66 13 4.32 13 5 C14.32 4.34 15.64 3.68 17 3 C16 6 16 6 14.296875 7.1796875 C11.49061169 8.1819244 9.22306264 8.19578721 6.25 8.125 C5.26515625 8.10695312 4.2803125 8.08890625 3.265625 8.0703125 C2.14414063 8.03550781 2.14414063 8.03550781 1 8 C-0.35439668 5.29120665 -0.06501451 2.99066732 0 0 Z " fill="#F6B0AF" transform="translate(190,157)"/>
<path d="M0 0 C0.66 0 1.32 0 2 0 C5 6.5 5 6.5 5 11 C3.54462432 11.83848804 2.08559627 12.67063934 0.625 13.5 C-0.18710937 13.9640625 -0.99921875 14.428125 -1.8359375 14.90625 C-4 16 -4 16 -6 16 C-6 15.34 -6 14.68 -6 14 C-4.68 13.67 -3.36 13.34 -2 13 C-2 12.34 -2 11.68 -2 11 C-1.01 10.67 -0.02 10.34 1 10 C1.33 8.35 1.66 6.7 2 5 C1.34 4.67 0.68 4.34 0 4 C0 2.68 0 1.36 0 0 Z " fill="#5D5D5D" transform="translate(404,151)"/>
<path d="M0 0 C0.66 0.33 1.32 0.66 2 1 C2.375 4.1875 2.375 4.1875 2 8 C0.18811972 10.1403498 -1.65801167 11.38988302 -4 13 C-4 12.34 -4 11.68 -4 11 C-6.31 11 -8.62 11 -11 11 C-11 10.67 -11 10.34 -11 10 C-10.071875 9.896875 -9.14375 9.79375 -8.1875 9.6875 C-4.92376955 8.98355814 -4.05110828 8.48292055 -2 6 C-1.67 6 -1.34 6 -1 6 C-0.67 4.02 -0.34 2.04 0 0 Z " fill="#FBC9C3" transform="translate(281,151)"/>
<path d="M0 0 C0 1.98 0 3.96 0 6 C-0.33 4.68 -0.66 3.36 -1 2 C-3.17517521 2.80730727 -3.17517521 2.80730727 -3.75 4.9375 C-5 7 -5 7 -7.5625 8.25 C-11.77642156 9.16940107 -15.70790719 9.17168371 -20 9 C-20 8.67 -20 8.34 -20 8 C-19.15695313 7.97421875 -18.31390625 7.9484375 -17.4453125 7.921875 C-16.34960938 7.86515625 -15.25390625 7.8084375 -14.125 7.75 C-13.03445312 7.70359375 -11.94390625 7.6571875 -10.8203125 7.609375 C-7.89245508 7.31430185 -7.89245508 7.31430185 -6.6796875 5.078125 C-6.45539063 4.39234375 -6.23109375 3.7065625 -6 3 C-4.60722783 0.21445565 -3.01148006 0 0 0 Z " fill="#E31010" transform="translate(212,159)"/>
<path d="M0 0 C0.33 0.99 0.66 1.98 1 3 C0.67 3.33 0.34 3.66 0 4 C-0.36760731 6.32817964 -0.70241581 8.6618385 -1 11 C0.98 11 2.96 11 5 11 C5 11.33 5 11.66 5 12 C-1.75 12.125 -1.75 12.125 -4 11 C-4.49230769 4.6 -4.49230769 4.6 -2 1.5625 C-1.34 1.046875 -0.68 0.53125 0 0 Z " fill="#FEE8E7" transform="translate(251,152)"/>
<path d="M0 0 C1.04449911 3.13349732 0.93423645 3.98968256 0 7 C-0.66 7 -1.32 7 -2 7 C-1.67 5.35 -1.34 3.7 -1 2 C-2.32 2 -3.64 2 -5 2 C-5.66 4.64 -6.32 7.28 -7 10 C-7.33 10 -7.66 10 -8 10 C-8 7.03 -8 4.06 -8 1 C-5.07175348 0.02391783 -3.04386724 -0.08226668 0 0 Z " fill="#EC3539" transform="translate(187,148)"/>
<path d="M0 0 C0.33 0.99 0.66 1.98 1 3 C-1.31 2.34 -3.62 1.68 -6 1 C-6.33 2.32 -6.66 3.64 -7 5 C-8.65 5 -10.3 5 -12 5 C-11.34 4.67 -10.68 4.34 -10 4 C-10 2.68 -10 1.36 -10 0 C-6.30581799 -1.231394 -3.7943739 -0.64432764 0 0 Z " fill="#575757" transform="translate(276,19)"/>
<path d="M0 0 C0.66 0 1.32 0 2 0 C2.33 1.32 2.66 2.64 3 4 C2.34 4 1.68 4 1 4 C1 11.59 1 19.18 1 27 C0.67 27 0.34 27 0 27 C0 18.09 0 9.18 0 0 Z " fill="#8F7A7B" transform="translate(328,163)"/>
<path d="M0 0 C0.99 0 1.98 0 3 0 C2 2 1 4 0 6 C1.32 6.33 2.64 6.66 4 7 C0.37 7 -3.26 7 -7 7 C-4.66666667 4.66666667 -2.33333333 2.33333333 0 0 Z " fill="#CF3D3A" transform="translate(282,159)"/>
<path d="M0 0 C1.32 0.33 2.64 0.66 4 1 C1.525 4.465 1.525 4.465 -1 8 C-2.32 7.34 -3.64 6.68 -5 6 C-3.35 4.02 -1.7 2.04 0 0 Z " fill="#F9BAB8" transform="translate(224,150)"/>
<path d="M0 0 C3.63 0 7.26 0 11 0 C10.67 0.99 10.34 1.98 10 3 C7.03 3 4.06 3 1 3 C0.67 2.01 0.34 1.02 0 0 Z " fill="#727272" transform="translate(241,24)"/>
<path d="M0 0 C1.1484375 1.703125 1.1484375 1.703125 2 4 C1.1015625 6.359375 1.1015625 6.359375 -0.375 8.75 C-1.09816406 9.94882813 -1.09816406 9.94882813 -1.8359375 11.171875 C-2.22007813 11.77515625 -2.60421875 12.3784375 -3 13 C-3.66 13 -4.32 13 -5 13 C-4.34 10.69 -3.68 8.38 -3 6 C-2.34 6 -1.68 6 -1 6 C-0.67 4.02 -0.34 2.04 0 0 Z " fill="#5B5B5B" transform="translate(57,131)"/>
<path d="M0 0 C0.33 0.66 0.66 1.32 1 2 C1.99 2 2.98 2 4 2 C4 3.65 4 5.3 4 7 C2.68 7 1.36 7 0 7 C0 6.01 0 5.02 0 4 C-0.99 4.33 -1.98 4.66 -3 5 C-1.125 1.125 -1.125 1.125 0 0 Z " fill="#DCA5A4" transform="translate(290,153)"/>
<path d="M0 0 C0.66 0 1.32 0 2 0 C2.433125 1.423125 2.433125 1.423125 2.875 2.875 C3.76825109 6.05211578 3.76825109 6.05211578 6 8 C4.02 8 2.04 8 0 8 C-0.38063221 5.6739143 -0.71269945 3.33944736 -1 1 C-0.67 0.67 -0.34 0.34 0 0 Z " fill="#FEE7E6" transform="translate(192,156)"/>
<path d="M0 0 C0.66 0 1.32 0 2 0 C2.3227506 4.62609198 1.84450614 7.28026121 -1 11 C-1.66 11 -2.32 11 -3 11 C-2.44894091 7.0507432 -1.61064629 3.65079826 0 0 Z " fill="#656565" transform="translate(74,93)"/>
<path d="M0 0 C0.33 0.66 0.66 1.32 1 2 C0.67 2.66 0.34 3.32 0 4 C2.64 4 5.28 4 8 4 C7.67 4.66 7.34 5.32 7 6 C6.113125 5.979375 5.22625 5.95875 4.3125 5.9375 C1.37830369 5.99286219 -1.15493696 6.3305734 -4 7 C-2.79618552 4.50638429 -1.54571278 2.31856917 0 0 Z " fill="#F0ACAB" transform="translate(286,158)"/>
<path d="M0 0 C0.99 0.495 0.99 0.495 2 1 C2 2.98 2 4.96 2 7 C2.66 7 3.32 7 4 7 C4 8.32 4 9.64 4 11 C3.01 11 2.02 11 1 11 C-0.20272819 8.59454362 -0.10071472 7.05003047 -0.0625 4.375 C-0.05347656 3.55773437 -0.04445312 2.74046875 -0.03515625 1.8984375 C-0.02355469 1.27195313 -0.01195312 0.64546875 0 0 Z " fill="#FFEDED" transform="translate(214,152)"/>
<path d="M0 0 C1.10844919 3.32534757 0.84454356 5.62182575 0 9 C-0.99 9.33 -1.98 9.66 -3 10 C-3 8.68 -3 7.36 -3 6 C-3.99 6 -4.98 6 -6 6 C-6 5.34 -6 4.68 -6 4 C-4.35 3.67 -2.7 3.34 -1 3 C-0.67 2.01 -0.34 1.02 0 0 Z " fill="#DD292A" transform="translate(240,149)"/>
<path d="M0 0 C0 0.33 0 0.66 0 1 C-0.60328125 1.10957031 -1.2065625 1.21914062 -1.828125 1.33203125 C-6.32534977 2.22422262 -9.43649861 2.9847296 -13 6 C-13.99 6 -14.98 6 -16 6 C-16 5.34 -16 4.68 -16 4 C-15.01 4 -14.02 4 -13 4 C-13 3.01 -13 2.02 -13 1 C-8.60563789 0.14256349 -4.47427924 -0.08948558 0 0 Z " fill="#D92928" transform="translate(280,148)"/>
<path d="M0 0 C1.32 0.33 2.64 0.66 4 1 C2.55746343 4.36591866 0.66735273 6.51047079 -2 9 C-2 6.69 -2 4.38 -2 2 C-1.34 2 -0.68 2 0 2 C0 1.34 0 0.68 0 0 Z " fill="#D62223" transform="translate(220,148)"/>
<path d="M0 0 C0.66 0.33 1.32 0.66 2 1 C2 3.64 2 6.28 2 9 C1.01 9 0.02 9 -1 9 C-1 7.68 -1 6.36 -1 5 C-1.99 4.67 -2.98 4.34 -4 4 C-3.01 3.67 -2.02 3.34 -1 3 C-0.67 2.01 -0.34 1.02 0 0 Z " fill="#D31D21" transform="translate(189,156)"/>
<path d="M0 0 C2.31 0 4.62 0 7 0 C7 0.33 7 0.66 7 1 C5.35 1.33 3.7 1.66 2 2 C2 3.32 2 4.64 2 6 C-0.31 6.33 -2.62 6.66 -5 7 C-4 5 -4 5 -1 4 C-0.26676204 1.98491642 -0.26676204 1.98491642 0 0 Z " fill="#EC948F" transform="translate(255,156)"/>
<path d="M0 0 C0.33 0 0.66 0 1 0 C1.49940808 6.11774896 0.24900602 9.02495953 -3 14 C-4 12 -4 12 -3.22265625 9.1796875 C-2.83980469 8.08914062 -2.45695313 6.99859375 -2.0625 5.875 C-1.68222656 4.77929688 -1.30195313 3.68359375 -0.91015625 2.5546875 C-0.60980469 1.71164063 -0.30945313 0.86859375 0 0 Z " fill="#DB2B2D" transform="translate(172,150)"/>
<path d="M0 0 C2.97 0 5.94 0 9 0 C9 2.31 9 4.62 9 7 C7.62437146 5.71034824 6.29233607 4.37310707 5 3 C5 2.34 5 1.68 5 1 C3.35 1 1.7 1 0 1 C0 0.67 0 0.34 0 0 Z " fill="#FCE3E0" transform="translate(272,151)"/>
<path d="M0 0 C0 0.33 0 0.66 0 1 C-1.65 1 -3.3 1 -5 1 C-5.33 1.99 -5.66 2.98 -6 4 C-6.99 4.33 -7.98 4.66 -9 5 C-9.33 5.66 -9.66 6.32 -10 7 C-10.99 6.67 -11.98 6.34 -13 6 C-12.34 6 -11.68 6 -11 6 C-10.9175 5.38125 -10.835 4.7625 -10.75 4.125 C-10 2 -10 2 -8.3125 0.75 C-5.45766881 -0.1758912 -2.98225393 -0.135557 0 0 Z " fill="#E80E15" transform="translate(298,147)"/>
<path d="M0 0 C2 3 2 3 1.625 5.1875 C1.41875 5.785625 1.2125 6.38375 1 7 C0.34 7 -0.32 7 -1 7 C-1.33 8.32 -1.66 9.64 -2 11 C-2.66 11 -3.32 11 -4 11 C-2.95902388 7.13351728 -1.96301592 3.50538557 0 0 Z " fill="#616161" transform="translate(66,112)"/>
<path d="M0 0 C0.66 0 1.32 0 2 0 C1.49135273 4.37436651 0.57073772 7.40096719 -2 11 C-2.99 11.495 -2.99 11.495 -4 12 C-3.52309796 10.37433394 -3.04340334 8.74948689 -2.5625 7.125 C-2.29566406 6.22007813 -2.02882813 5.31515625 -1.75390625 4.3828125 C-1 2 -1 2 0 0 Z " fill="#555555" transform="translate(89,66)"/>
<path d="M0 0 C6.75 0.875 6.75 0.875 9 2 C9 2.66 9 3.32 9 4 C9.66 4.33 10.32 4.66 11 5 C10.01 5.495 10.01 5.495 9 6 C8.34 5.67 7.68 5.34 7 5 C7 4.34 7 3.68 7 3 C4.69 2.67 2.38 2.34 0 2 C0 1.34 0 0.68 0 0 Z " fill="#5A5A5A" transform="translate(277,22)"/>
<path d="M0 0 C3.0625 0.375 3.0625 0.375 7.0625 3.375 C2.7725 3.375 -1.5175 3.375 -5.9375 3.375 C-2.9375 0.375 -2.9375 0.375 0 0 Z " fill="#DD2322" transform="translate(260.9375,162.625)"/>
<path d="M0 0 C0.66 0 1.32 0 2 0 C2 0.99 2 1.98 2 3 C3.32 3.33 4.64 3.66 6 4 C6 4.33 6 4.66 6 5 C3.36 5 0.72 5 -2 5 C-1.34 3.35 -0.68 1.7 0 0 Z " fill="#FDE9E7" transform="translate(288,157)"/>
<path d="M0 0 C1.2065625 0.0309375 1.2065625 0.0309375 2.4375 0.0625 C2.1075 1.3825 1.7775 2.7025 1.4375 4.0625 C0.1175 4.3925 -1.2025 4.7225 -2.5625 5.0625 C-3.125 3.125 -3.125 3.125 -3.5625 1.0625 C-2.5625 0.0625 -2.5625 0.0625 0 0 Z " fill="#FDD6D7" transform="translate(259.5625,156.9375)"/>
<path d="M0 0 C0.33 1.32 0.66 2.64 1 4 C0.34 4 -0.32 4 -1 4 C-1.33 5.98 -1.66 7.96 -2 10 C-2.99 10.33 -3.98 10.66 -5 11 C-4.01 8.03 -3.02 5.06 -2 2 C-1.34 2 -0.68 2 0 2 C0 1.34 0 0.68 0 0 Z " fill="#585858" transform="translate(51,144)"/>
<path d="M0 0 C3.82524236 1.450954 5.19090966 3.38181932 7 7 C7 7.66 7 8.32 7 9 C6.01 9 5.02 9 4 9 C0 2.25 0 2.25 0 0 Z " fill="#555555" transform="translate(347,47)"/>
<path d="M0 0 C0.99 0.33 1.98 0.66 3 1 C3 2.98 3 4.96 3 7 C1.35 6.67 -0.3 6.34 -2 6 C-1.34 4.02 -0.68 2.04 0 0 Z " fill="#DB4A4C" transform="translate(262,157)"/>
<path d="M0 0 C1.32 0 2.64 0 4 0 C3.67 1.98 3.34 3.96 3 6 C2.01 6.33 1.02 6.66 0 7 C0 4.69 0 2.38 0 0 Z " fill="#FDCAC8" transform="translate(182,150)"/>
<path d="M0 0 C0.33 0.66 0.66 1.32 1 2 C1.99 2 2.98 2 4 2 C4 3.32 4 4.64 4 6 C2.02 6.33 0.04 6.66 -2 7 C-2 6.34 -2 5.68 -2 5 C-1.34 5 -0.68 5 0 5 C0 3.35 0 1.7 0 0 Z " fill="#EDA8AB" transform="translate(233,153)"/>
<path d="M0 0 C1.65 0 3.3 0 5 0 C5 1.32 5 2.64 5 4 C3.35 4 1.7 4 0 4 C0 2.68 0 1.36 0 0 Z " fill="#E40D0E" transform="translate(197,155)"/>
<path d="M0 0 C0.99 0.33 1.98 0.66 3 1 C3 1.66 3 2.32 3 3 C3.66 3.33 4.32 3.66 5 4 C3.35 4.33 1.7 4.66 0 5 C-0.5625 3.0625 -0.5625 3.0625 -1 1 C-0.67 0.67 -0.34 0.34 0 0 Z " fill="#C72F2C" transform="translate(251,157)"/>
<path d="M0 0 C0.99 0 1.98 0 3 0 C3 1.65 3 3.3 3 5 C1.68 5 0.36 5 -1 5 C-0.67 3.35 -0.34 1.7 0 0 Z " fill="#E40C0B" transform="translate(273,155)"/>
<path d="M0 0 C1.2065625 0.0309375 1.2065625 0.0309375 2.4375 0.0625 C1.4475 0.3925 0.4575 0.7225 -0.5625 1.0625 C-1.29573796 3.07758358 -1.29573796 3.07758358 -1.5625 5.0625 C-2.8825 5.0625 -4.2025 5.0625 -5.5625 5.0625 C-3.15007962 0.07683121 -3.15007962 0.07683121 0 0 Z " fill="#D14642" transform="translate(255.5625,152.9375)"/>
<path d="M0 0 C1.2077558 3.62326739 0.54311128 4.64146369 -1 8 C-1.33 6.68 -1.66 5.36 -2 4 C-2.66 4 -3.32 4 -4 4 C-3.67 3.01 -3.34 2.02 -3 1 C-2.01 0.67 -1.02 0.34 0 0 Z " fill="#F9C7C5" transform="translate(270,152)"/>
<path d="M0 0 C0.99 0.33 1.98 0.66 3 1 C3 3.64 3 6.28 3 9 C2.34 9 1.68 9 1 9 C0.67 6.03 0.34 3.06 0 0 Z " fill="#FEE8E8" transform="translate(204,151)"/>
<path d="M0 0 C0 0.99 0 1.98 0 3 C-2.64 3 -5.28 3 -8 3 C-8 2.34 -8 1.68 -8 1 C-5.23735711 0.40267181 -2.83967231 0 0 0 Z " fill="#F1393A" transform="translate(301,147)"/>
<path d="M0 0 C2.97 0.33 5.94 0.66 9 1 C7 3 7 3 3.875 3.125 C2.451875 3.063125 2.451875 3.063125 1 3 C0.67 2.01 0.34 1.02 0 0 Z " fill="#E21E1C" transform="translate(246,165)"/>
<path d="M0 0 C0.268125 0.61875 0.53625 1.2375 0.8125 1.875 C1.95556848 4.2995233 1.95556848 4.2995233 5 6 C2.69 6 0.38 6 -2 6 C-1.34 4.02 -0.68 2.04 0 0 Z " fill="#FEE8E5" transform="translate(181,158)"/>
<path d="M0 0 C0.99 0.495 0.99 0.495 2 1 C2 1.66 2 2.32 2 3 C3.65 3.33 5.3 3.66 7 4 C7 4.66 7 5.32 7 6 C4.03 5.505 4.03 5.505 1 5 C0.67 3.35 0.34 1.7 0 0 Z " fill="#6E6E6E" transform="translate(43,158)"/>
<path d="M0 0 C1.25541557 3.76624671 0.37061958 5.37188934 -1 9 C-1.99 8.01 -2.98 7.02 -4 6 C-2.25 1.125 -2.25 1.125 0 0 Z " fill="#FDD7D8" transform="translate(251,152)"/>
<path d="M0 0 C0.99 0 1.98 0 3 0 C2.34 2.97 1.68 5.94 1 9 C0.67 9 0.34 9 0 9 C0 6.03 0 3.06 0 0 Z " fill="#DB231C" transform="translate(179,149)"/>
<path d="M0 0 C0.33 0.66 0.66 1.32 1 2 C1.66 2.33 2.32 2.66 3 3 C1.71937515 4.7074998 0.38232443 6.37373596 -1 8 C-1.66 8 -2.32 8 -3 8 C-2.67 6.35 -2.34 4.7 -2 3 C-1.34 3 -0.68 3 0 3 C0 2.01 0 1.02 0 0 Z " fill="#646464" transform="translate(61,123)"/>
<path d="M0 0 C2.76276177 0.52268466 5.3260876 1.10869587 8 2 C8 2.66 8 3.32 8 4 C2.25 3.125 2.25 3.125 0 2 C0 1.34 0 0.68 0 0 Z " fill="#585858" transform="translate(87,180)"/>
<path d="M0 0 C2 3.75 2 3.75 2 6 C2.99 6.33 3.98 6.66 5 7 C3.35 7.33 1.7 7.66 0 8 C0 5.36 0 2.72 0 0 Z " fill="#F9B9B5" transform="translate(213,157)"/>
<path d="M0 0 C0.33 0.99 0.66 1.98 1 3 C1.66 3.33 2.32 3.66 3 4 C2.01 4.66 1.02 5.32 0 6 C0 5.34 0 4.68 0 4 C-2.31 4 -4.62 4 -7 4 C-7 3.67 -7 3.34 -7 3 C-5.5459375 2.814375 -5.5459375 2.814375 -4.0625 2.625 C-2.5465625 2.315625 -2.5465625 2.315625 -1 2 C-0.67 1.34 -0.34 0.68 0 0 Z " fill="#F0A3A6" transform="translate(277,158)"/>
<path d="M0 0 C1.32 0 2.64 0 4 0 C4 1.98 4 3.96 4 6 C3.67 5.01 3.34 4.02 3 3 C1.68 3 0.36 3 -1 3 C-0.67 2.01 -0.34 1.02 0 0 Z " fill="#C84C52" transform="translate(232,159)"/>
<path d="M0 0 C0 3.20395416 -0.74335022 5.09399739 -2 8 C-3.32 7.67 -4.64 7.34 -6 7 C-4.02 4.69 -2.04 2.38 0 0 Z " fill="#DC3B35" transform="translate(223,157)"/>
<path d="M0 0 C0.33 0.99 0.66 1.98 1 3 C0.67 3.66 0.34 4.32 0 5 C-0.66 5 -1.32 5 -2 5 C-2.33 6.32 -2.66 7.64 -3 9 C-3.1875 5.625 -3.1875 5.625 -3 2 C-2.01 1.34 -1.02 0.68 0 0 Z " fill="#EB090D" transform="translate(178,155)"/>
<path d="M0 0 C0.66 0 1.32 0 2 0 C2 1.32 2 2.64 2 4 C2.66 4 3.32 4 4 4 C4 4.66 4 5.32 4 6 C2.68 6.33 1.36 6.66 0 7 C0 4.69 0 2.38 0 0 Z " fill="#FCE2E5" transform="translate(266,156)"/>
<path d="M0 0 C1.65 0 3.3 0 5 0 C4.67 1.65 4.34 3.3 4 5 C3.67 4.01 3.34 3.02 3 2 C2.34 2 1.68 2 1 2 C0.67 2.99 0.34 3.98 0 5 C-0.33 4.34 -0.66 3.68 -1 3 C-0.67 2.01 -0.34 1.02 0 0 Z " fill="#F6A6A1" transform="translate(167,150)"/>
</svg>
